<?xml version="1.0" encoding="utf-8"?>
<!-- Generator: Adobe Illustrator 22.0.1, SVG Export Plug-In . SVG Version: 6.00 Build 0)  -->
<svg version="1.1" id="Layer_1" xmlns="http://www.w3.org/2000/svg" xmlns:xlink="http://www.w3.org/1999/xlink" x="0px" y="0px"
	 viewBox="0 0 92.6639175 81.4420013" style="enable-background:new 0 0 92.6639175 81.4420013;" xml:space="preserve">
<g>
	<path d="M66.8959579,48.5186272c0.538002-0.7970009,0.987999-1.6160011,1.3389969-2.4449997
		c0.3740005-0.8849983,0.663002-1.8090019,0.8550034-2.7599983c0.1800003-0.8919983,0.2750015-1.8610001,0.2750015-2.9020004
		c0-1.0400009-0.0960007-2.0089989-0.2750015-2.901001c-0.1920013-0.9510002-0.4810028-1.875-0.8550034-2.7599983
		c-0.3509979-0.8289986-0.8010025-1.6479988-1.3389969-2.4449997c-0.5169983-0.7689991-1.1159973-1.4929981-1.7850037-2.1619968
		c-1.3319969-1.3320007-2.8949928-2.4000015-4.6079979-3.125c-1.7579994-0.7410011-2.5820007-2.7659988-1.8419991-4.5229988
		c0.7400017-1.7579994,2.7660027-2.5830002,4.5239983-1.8430004c2.5899925,1.0960007,4.904995,2.6630001,6.8289986,4.5869999
		c0.9660034,0.9650002,1.8470001,2.0349998,2.6259995,3.1910019c0.7480011,1.1090012,1.4069977,2.3269997,1.9609985,3.638998
		c0.5490036,1.2960014,0.9749985,2.663002,1.262001,4.086998c0.2860031,1.4210014,0.4369965,2.8460007,0.4369965,4.2560005
		c0,1.4109993-0.1500015,2.8359985-0.4369965,4.2579994c-0.2870026,1.4230003-0.7129974,2.7900009-1.262001,4.0859985
		c-0.5540009,1.3120003-1.2129974,2.5289993-1.9609985,3.6380005c-0.2190018,0.3250008-0.4449997,0.644001-0.6800003,0.9529991
		c-0.8089981,1.0709991-0.9660034,0.6699982-1.8840027-0.2490005c-1.0960007-1.0960007-1.6190033-1.6189995-2.7139969-2.7140007
		C66.5349579,49.5546265,66.2629547,49.461628,66.8959579,48.5186272z"/>
	<path d="M76.7289581,58.2546234c0.7360001-0.8450012,1.4169998-1.7300034,2.0400009-2.6529999
		c0.9889984-1.4700012,1.8290024-3.0060005,2.5-4.5909996c0.6999969-1.6529999,1.2389984-3.3839989,1.6009979-5.1730003
		c0.3460007-1.7089996,0.526001-3.5219994,0.526001-5.427002s-0.1809998-3.7169991-0.526001-5.4249992
		c-0.3610001-1.7890015-0.9000015-3.5199986-1.6009979-5.1729984c-0.6709976-1.5849991-1.5110016-3.1220016-2.5-4.5909996
		c-0.9769974-1.4459991-2.0979996-2.8029995-3.3440018-4.0489998c-1.2460022-1.2469997-2.6029968-2.368-4.048996-3.3430004
		c-1.4690018-0.9899998-3.0070038-1.8300009-4.5920029-2.5010004c-1.7580032-0.7399998-2.5820007-2.7660007-1.8420029-4.5240002
		s2.7669983-2.5830002,4.5230026-1.8419991c2.0670013,0.875,4.0029984,1.9239998,5.7839966,3.125
		c1.8359985,1.2380009,3.5360031,2.6399994,5.0790024,4.1820002c1.5419998,1.5429993,2.9440002,3.2439995,4.1819992,5.0799999
		c1.2020035,1.7800007,2.25,3.7160015,3.1240005,5.782999c0.8740005,2.0649986,1.5510025,4.2399979,2.0080032,6.5009975
		c0.4529953,2.234005,0.6899948,4.503006,0.6899948,6.7770042c0,2.2750015-0.2369995,4.545002-0.6880035,6.781002
		c-0.4570007,2.2610016-1.1340027,4.4360008-2.0080032,6.5009995c-0.8740005,2.0660019-1.9229965,4.0009995-3.1240005,5.7819977
		c-0.875,1.2979965-1.8320007,2.5270004-2.8610001,3.6819992c-0.8130035,0.9110031-0.8600006,0.651001-1.7080002-0.1949997
		c-1.1009979-1.1019974-1.9000015-1.9000015-3.0009995-3.0009995
		C76.0729523,59.0926285,75.9359512,59.1646271,76.7289581,58.2546234z"/>
	<path d="M16.4279594,23.4466267H8.2979584c-3.2810001,0-5.9660006,2.6850014-5.9660006,5.9660034v22.4839993
		c0,3.2799988,2.6849995,5.9660034,5.9659996,5.9660034h13.4410009
		c6.9060001,5.1949997,13.8099995,10.3929977,20.7129993,15.5910034c3.1479988,2.3679962,6.7929993,1.987999,6.7929993-2.1200027
		c0-4.9250031,0-9.4420013,0-14.3649979c0-1.7450027-0.2610016-2.2220001-1.5060005-3.4679985
		c-9.7270012-9.7270012-19.4529991-19.4539986-29.1800003-29.1809978
		C17.7019596,23.4606266,17.6429596,23.4466267,16.4279594,23.4466267z"/>
	<path d="M8.9209576,3.3096275L8.9209576,3.3096275c2.1160002-2.1149998,5.5770006-2.1149998,7.6920013,0l67.1299896,67.1309967
		c2.1159973,2.1149979,2.1159973,5.576004,0,7.6910019l0,0c-2.1149979,2.1159973-5.576004,2.1159973-7.6910019,0
		L8.9209547,11.001626C6.8059578,8.8866282,6.8059578,5.4256277,8.9209576,3.3096275z"/>
	<path d="M42.4529572,7.855628c-2.8720016,2.1630001-5.7439995,4.3249989-8.6170006,6.4869995
		c-1.5849991,1.1930008-0.8050003,1.7070017,0.598999,3.1100016c4.5040016,4.5060005,9.0089989,9.0109997,13.5139999,13.5160007
		c1.0040016,1.0159988,1.2970009,0.8959999,1.2970009-0.1910019V9.9776278
		C49.2459602,5.8686275,45.6009598,5.487627,42.4529572,7.855628z"/>
</g>
</svg>
