<?xml version="1.0" encoding="utf-8"?>
<!-- Generator: Adobe Illustrator 22.0.1, SVG Export Plug-In . SVG Version: 6.00 Build 0)  -->
<svg version="1.1" id="Layer_1" xmlns="http://www.w3.org/2000/svg" xmlns:xlink="http://www.w3.org/1999/xlink" x="0px" y="0px"
	 viewBox="0 0 48 48" style="enable-background:new 0 0 48 48;" xml:space="preserve">
<path d="M46.4889526,19.8950806L44.5246582,17.62854c-0.8562622-1.0073853-1.4102783-2.2665405-1.5110474-3.6264648
	l-0.2518311-2.9716797c-0.2518311-3.0723877-2.7197876-5.5404053-5.7922363-5.7922363l-2.9716187-0.2518311
	c-1.3095703-0.100708-2.6191406-0.6043701-3.6264648-1.5109863l-2.2665405-1.9643555
	c-2.3672485-2.0146484-5.8425903-2.0146484-8.2098389,0L17.62854,3.4753418
	c-1.0073242,0.8562012-2.2665405,1.4102783-3.6264648,1.5109863l-2.9716187,0.2518311
	c-3.0724487,0.2518311-5.5404053,2.7198486-5.7922363,5.7922363l-0.2518311,2.9716797
	c-0.100769,1.3095703-0.6044312,2.6190796-1.5110474,3.6264648l-1.9642944,2.2665405
	c-2.0147095,2.3672485-2.0147095,5.8425903,0,8.2098389L3.4753418,30.37146
	c0.8562622,1.0073242,1.4102783,2.2664795,1.5110474,3.6264038l0.2518311,2.9716797
	c0.2518311,3.0723877,2.7197876,5.5404053,5.7922363,5.7922363l2.9716187,0.2518311
	c1.3095703,0.100769,2.6191406,0.6044312,3.6264648,1.5110474l2.2665405,1.9642944
	c2.3672485,2.0147095,5.8425903,2.0147095,8.2098389,0l2.2665405-1.9642944
	c1.0073242-0.8562622,2.2665405-1.4102783,3.6264648-1.5110474l2.9716187-0.2518311
	c3.0724487-0.2518311,5.5404053-2.7198486,5.7922363-5.7922363l0.2518311-2.9716797
	c0.100769-1.3095093,0.6044312-2.6190796,1.5110474-3.6264038l1.9642944-2.2665405
	C48.5036621,25.7376709,48.5036621,22.2119751,46.4889526,19.8950806z"/>
</svg>
