<?xml version="1.0" encoding="utf-8"?>
<!-- Generator: Adobe Illustrator 22.0.1, SVG Export Plug-In . SVG Version: 6.00 Build 0)  -->
<svg version="1.1" xmlns="http://www.w3.org/2000/svg" xmlns:xlink="http://www.w3.org/1999/xlink" x="0px" y="0px"
	 viewBox="0 0 925.9295044 545" style="enable-background:new 0 0 925.9295044 545;" xml:space="preserve">
<style type="text/css">
	.st0{fill:#FFFFFF;}
	.st1{fill:none;stroke:#AE3F5D;stroke-width:6.0123801;stroke-linecap:round;stroke-linejoin:round;}
	
		.st2{fill:none;stroke:#AE3F5D;stroke-width:6.0123801;stroke-linecap:round;stroke-linejoin:round;stroke-dasharray:36.2761002,36.2761002;}
	
		.st3{fill:none;stroke:#AE3F5D;stroke-width:6.0123801;stroke-linecap:round;stroke-linejoin:round;stroke-dasharray:36.2425995,36.2425995;}
	.st4{fill:#C34868;}
	.st5{fill:#E9577C;}
	.st6{fill:#2E98CB;}
	.st7{fill:#FAD658;}
	.st8{fill:#C2D846;}
	.st9{fill:#62C9E4;}
	.st10{fill:#ED2B4F;}
	.st11{fill:#7FC89B;}
</style>
<g id="Layer_1">
	<g>
		<g>
			<path class="st0" d="M812.3738403,439.4750366c5.3308105-24.4897156,8.2219849-49.8891296,8.2219849-75.9750671
				c0-196.270401-159.1060791-355.3922119-355.3829346-355.3922119c-196.2765198,0-355.3825378,159.1218109-355.3825378,355.3922119
				c0,26.0859375,2.8911438,51.4853516,8.2216797,75.9750671H812.3738403z"/>
			<g>
				<path class="st0" d="M791.7221069,446.5305176c6.0581665-25.2424316,9.350708-51.557251,9.350708-78.6529846
					c0-185.4899445-150.3635254-335.8628235-335.8599243-335.8628235
					c-185.4960022,0-335.8595276,150.372879-335.8595276,335.8628235c0,27.0957336,3.2924957,53.410553,9.3506317,78.6529846
					H791.7221069z"/>
				<g>
					<path class="st1" d="M780.1135254,446.5305176h11.6085815c0.8997803-3.7533264,1.7403564-7.5287781,2.5148926-11.3292847"/>
					<path class="st2" d="M798.1251831,412.1817627c1.9345703-14.492981,2.9476318-29.2778931,2.9476318-44.3042297
						c0-185.4899445-150.3635254-335.8628235-335.8599243-335.8628235
						c-185.4960022,0-335.8595276,150.372879-335.8595276,335.8628235c0,19.0336304,1.6240845,37.6816406,4.6909332,55.8470459"/>
					<path class="st1" d="M136.1891785,435.2012329c0.7745056,3.8005066,1.6148071,7.5759583,2.5148163,11.3292847h11.6083527"/>
					<line class="st3" x1="173.6390076" y1="446.5305176" x2="768.4487305" y2="446.5305176"/>
				</g>
			</g>
		</g>
		<g>
			<polygon class="st4" points="163.2692261,513.2678833 11.1621103,513.2678833 59.9036255,457.5148621 11.1621103,402.4737244 
				163.2692261,402.4737244 			"/>
			<polygon class="st4" points="762.6477661,513.2678833 914.767395,513.2678833 866.0133057,457.5148621 914.767395,402.4737244 
				762.6477661,402.4737244 			"/>
			<rect x="103.1511917" y="378.8429565" class="st5" width="724.1234131" height="158.0492706"/>
			<g>
				<g>
					<path class="st6" d="M329.6436157,189.621582c-3.7565308-8.1494598-27.6316833-3.5494385-35.8662415,0
						c-19.6861267,8.4853058-58.8509064,62.3505859-58.8509064,62.3505859s11.0312805-51.3315277,0-62.3505859
						c-4.9044647-4.9134064-22.8469849-4.9134064-27.7511444,0c-26.5155334,26.5126495-26.5155334,123.4813232,0,150.0032349
						c4.9041595,4.9009399,22.8466797,4.9009399,27.7511444,0c7.8832092-7.8832092,0-44.5492554,0-44.5492554l11.1378632-11.0030212
						c0,0,32.15979,46.0918579,48.6599731,55.5522766c7.569519,4.3364258,30.5982666,7.5852966,34.9193115,0
						c12.7060547-22.3765869-57.2644043-80.7667236-57.2644043-80.7667236S338.1163635,208.0094604,329.6436157,189.621582z"/>
					<g>
						<path class="st6" d="M329.1170044,323.9681396c0.0250549,2.3735657-0.4203186,4.5531921-1.5053101,6.4563293
							c-9.6643982,17.0049744-28.6665649,3.5811462-34.9128723,0c-16.5066528-9.454071-48.6663513-55.5523376-48.6663513-55.5523376
							l-11.1253815,11.0158997c0,0,7.8704071,36.6660461,0,44.536438c-4.9105225,4.9137573-22.8469849,4.9137573-27.7575684,0
							c-6.4845276-6.4845886-11.3761292-17.2085571-14.6876068-30.0714111
							c3.1734161,16.9077454,8.7361145,31.2851257,16.7134094,39.271759c4.9041595,4.9009399,22.8466797,4.9009399,27.7511444,0
							c7.8832092-7.8832092,0-44.5492554,0-44.5492554l11.1378632-11.0030212c0,0,32.15979,46.0918579,48.6599731,55.5522766
							c7.569519,4.3364258,30.5982666,7.5852966,34.9193115,0
							C332.007843,335.447998,331.4998474,330.0262756,329.1170044,323.9681396z"/>
					</g>
					<path class="st7" d="M353.1739197,209.3767548c5.1802063,5.1738281,29.2939148,0,29.2939148,0v95.1281586
						c0,0-24.1137085-5.1834717-29.2939148,0c-4.8601379,4.8540039-4.8601379,22.6269836,0,27.4938965
						c16.236908,16.2333374,75.6083069,16.2333374,91.8452454,0c4.8600769-4.8669128,4.8600769-22.6398926,0-27.4938965
						c-5.0862122-5.089447-28.7359009,0-28.7359009,0v-95.1281586c0,0,23.6496887,5.0736084,28.7359009,0
						c4.8600769-4.8636627,4.8600769-22.6463165,0-27.5032196c-16.2369385-16.2368927-91.8452454,0-91.8452454,0
						S348.3137817,204.513092,353.1739197,209.3767548z"/>
					<g>
						<path class="st7" d="M382.4678345,209.3767548v-7.199646c0,0-24.1137085,5.1738281-29.2939148,0
							c-1.1662903-1.1665192-1.7683105-3.361557-2.0254822-6.0173798
							c-0.3638306,5.5469818-0.1066589,11.0846405,2.0254822,13.2170258
							C358.354126,214.5505829,382.4678345,209.3767548,382.4678345,209.3767548z"/>
						<path class="st7" d="M445.019165,324.802063c-16.2369385,16.2336731-75.6083374,16.2336731-91.8452454,0
							c-1.9063721-1.9189148-3.0604248-5.8259888-3.467865-10.1595154
							c-0.6335144,6.694519,0.5140381,14.3960571,3.467865,17.3562622c16.236908,16.2333374,75.6083069,16.2333374,91.8452454,0
							c2.9473267-2.9602051,4.0952759-10.6617432,3.4678345-17.3562622
							C448.0795288,318.9760742,446.9319153,322.8831482,445.019165,324.802063z"/>
						<path class="st7" d="M445.019165,202.1771088c-5.0862122,5.0768433-28.7359009,0-28.7359009,0v7.199646
							c0,0,23.6496887,5.0736084,28.7359009,0c2.9473267-2.9537811,4.0952759-10.6613922,3.4678345-17.349823
							C448.0795288,196.3540344,446.9319153,200.2643127,445.019165,202.1771088z"/>
					</g>
					<path class="st8" d="M530.4356689,190.6250153v-0.0501251c0,0-30.4726563-8.3408051-38.807373,0
						c-26.5470276,26.5405884-29.1998901,126.5477905,0,150.1317139c9.6328735,7.7952881,38.807373,0,38.807373,0
						s72.8928833-12.8313293,72.8928833-74.9812317C603.3285522,203.6008453,530.4356689,190.6250153,530.4356689,190.6250153z
						 M512.1797485,313.2878113c-16.8200073-16.8668518-16.8450623-78.4461975,0-95.3005676
						c2.8095703-2.7906189,59.8418579,3.1011505,59.8418579,47.7037659
						C572.0216064,310.3057861,514.9768677,316.0942078,512.1797485,313.2878113z"/>
					<g>
						<path class="st8" d="M512.1797485,207.9028931c-9.1374207,9.1499634-13.2952881,31.4668732-12.5179443,52.6611633
							c0.6585999-17.8391724,4.8228455-34.8785095,12.5179443-42.5768127
							c2.6965942-2.6904602,55.4203491,2.6686554,59.5535278,42.6644592
							c0.1627808-1.633728,0.2883301-3.3050537,0.2883301-5.0482483
							C572.0216064,210.9947205,514.9893188,205.0997314,512.1797485,207.9028931z"/>
						<path class="st8" d="M530.4356689,330.6251526c0,0-29.1744995,7.7830505-38.807373-0.006134
							c-13.4523926-10.8684998-20.1251221-37.9545898-20.8337097-66.6057434
							c-0.7651978,32.1848145,5.807312,64.558136,20.8337097,76.6933289c9.6328735,7.7952881,38.807373,0,38.807373,0
							s72.8928833-12.8313293,72.8928833-74.9812317c0-1.7120972-0.081543-3.3865967-0.1881104-5.0328674
							C599.3148193,318.4741821,530.4356689,330.6251526,530.4356689,330.6251526z"/>
					</g>
					<path class="st5" d="M683.4710693,221.2922974c12.9755859,0,15.9608154,11.837265,23.5303345,19.4071045
						c6.6601563,6.6633606,31.0371704,6.6633606,37.7037964,0c18.1997681-18.2030029-27.4688721-46.6845551-61.2341309-46.6845551
						c-36.0543213,0-61.2279663,19.1935577-61.2279663,46.6845551c0,23.3829041,24.6278076,39.8609619,62.7454834,41.9901428
						c18.4129639,1.0223694,22.0128174,6.1994019,22.0128174,14.8006287c0,8.7361145-10.8620605,19.4067993-23.5303345,19.4067993
						c-12.9694214,0-15.9546509-11.8465576-23.5241699-19.4067993c-6.666626-6.6665955-31.0372314-6.6665955-37.7037964,0
						c-18.1994629,18.2058716,27.4688721,46.6846313,61.2279663,46.6846313
						c32.6176758,0,61.2341309-21.8121338,61.2341309-46.6846313c0-24.6685791-20.7145996-39.9803467-56.8190308-41.9933624
						c-12.7436523-0.7150574-27.93927-3.8570099-27.93927-14.7974091
						C659.9468994,228.3602905,668.5198364,221.2922974,683.4710693,221.2922974z"/>
					<g>
						<path class="st5" d="M684.9885864,282.6895447c14.6314087,0.8120422,19.8928833,4.2552185,21.4421997,9.9527283
							c0.3638306-1.1976929,0.5706177-2.3985901,0.5706177-3.5622253c0-8.5979919-3.5998535-13.775116-22.0128174-14.7942505
							c-35.9663696-2.0068359-59.9169922-16.8010254-62.5072021-38.1080475
							c-0.1503296,1.4831238-0.2382813,2.9852295-0.2382813,4.5216522
							C622.243103,264.0823059,646.8709106,280.5603638,684.9885864,282.6895447z"/>
						<path class="st5" d="M744.7052002,232.2924194c-6.666626,6.6602325-31.0436401,6.6602325-37.7037964,0
							c-7.569519-7.5727386-10.5547485-19.4131622-23.5303345-19.4131622c-14.9512329,0-23.5241699,7.0711823-23.5241699,19.4131622
							c0,1.2166748,0.2070923,2.3234863,0.5645142,3.3490753c2.1070557-9.1878662,10.1973267-14.3491974,22.9596558-14.3491974
							c12.9755859,0,15.9608154,11.837265,23.5303345,19.4071045c6.6601563,6.6633606,31.0371704,6.6633606,37.7037964,0
							c4.1264038-4.1267395,4.9356079-8.7865143,3.3866577-13.5149689
							C747.4268188,228.9434052,746.3296509,230.661911,744.7052002,232.2924194z"/>
						<path class="st5" d="M683.4710693,335.7710266c-26.1016235,0-59.3087769-17.0396423-64.614624-33.1760254
							c-6.7166748,17.9740601,33.8783569,41.5798035,64.614624,41.5798035
							c32.6176758,0,61.2341309-21.8121338,61.2341309-46.6846313c0-1.5585632-0.081543-3.0761108-0.2507324-4.5531311
							C741.6884766,316.1632385,714.3891602,335.7710266,683.4710693,335.7710266z"/>
					</g>
				</g>
				<g>
					<g>
						<path class="st0" d="M344.4002075,489.8284912c3.6438599,0,5.4685974,1.8247375,5.4685974,5.4779053v20.4262085
							c0,3.4649658-1.8247375,5.4746704-5.4685974,5.4746704H253.734375c-4.3774719,0-6.0205383-2.7373047-3.831955-6.5692749
							l49.8014679-87.5582886c0.7276001-1.2792358,0.1817627-2.191803-1.2731934-2.191803h-34.843811
							c-3.4681091,0-5.4689026-2.0068359-5.4689026-5.4656982v-20.4384155c0-3.6499634,2.0007935-5.4657898,5.4689026-5.4657898
							h87.925293c4.3711243,0,6.0206299,2.7344971,3.8256226,6.5632629l-50.7108459,87.5615234
							c-0.7276001,1.2763367-0.1817322,2.1856995,1.2731323,2.1856995H344.4002075z"/>
						<path class="st0" d="M451.6542969,480.1608582c0,12.0411682-2.5527344,44.3296814-45.7877502,44.3296814
							c-43.2289734,0-45.7814026-32.2885132-45.7814026-44.3296814v-45.6024475
							c0-12.0443726,2.5524292-44.3232422,45.7814026-44.3232422c43.2350159,0,45.7877502,32.2788696,45.7877502,44.3232422
							V480.1608582z M420.2843933,444.2227478c0-14.0479431-0.921875-22.6180725-14.4178467-22.6180725
							c-13.4960327,0-14.4053955,8.5701294-14.4053955,22.6180725v26.2709045
							c0,14.0479126,0.9093628,22.6208801,14.4053955,22.6208801c13.4959717,0,14.4178467-8.5729675,14.4178467-22.6208801
							V444.2227478z"/>
						<path class="st0" d="M500.3518066,393.5180054c3.1043701,0,5.1112671,1.2764282,6.3843689,4.1893921l24.8160095,60.748291
							c0.7211914,1.6366272,2.1885376,1.2792358,2.1885376-0.5455017v-58.9263916
							c0-3.6499634,2.0007935-5.4657898,5.4686279-5.4657898h20.432373c3.6499023,0,5.4750366,1.8158264,5.4750366,5.4657898
							V515.732605c0,3.4649658-1.8251343,5.4746704-5.4750366,5.4746704h-26.8103027
							c-3.1104736,0-5.1173706-1.2792358-6.3904419-4.1986084l-24.8034363-60.7418823
							c-0.7401428-1.6430664-2.1950378-1.276062-2.1950378,0.5426331v58.9231873
							c0,3.4649658-1.8251343,5.4746704-5.4686584,5.4746704h-20.4322815c-3.4620972,0-5.4689331-2.0097046-5.4689331-5.4746704
							V398.9837952c0-3.6499634,2.0068359-5.4657898,5.4689331-5.4657898H500.3518066z"/>
						<path class="st0" d="M665.4344482,393.5180054c3.6499023,0,5.4749756,1.8158264,5.4749756,5.4657898v20.4384155
							c0,3.4588623-1.8250732,5.4656982-5.4749756,5.4656982h-44.1447144c-3.461731,0-5.4686279,1.8280334-5.4686279,5.4685974
							v5.8417358c0,3.4649353,2.006897,5.4689331,5.4686279,5.4689331h28.2780762
							c3.6498413,0,5.4749756,1.8311768,5.4749756,5.4747009v20.432312c0,3.471405-1.8251343,5.4685974-5.4749756,5.4685974
							h-28.2780762c-3.461731,0-5.4686279,1.8344727-5.4686279,5.478241v5.8291931
							c0,3.4745789,2.006897,5.4782715,5.4686279,5.4782715h44.1447144c3.6499023,0,5.4749756,1.8247375,5.4749756,5.4779053
							v20.4262085c0,3.6434937-1.8250732,5.4746704-5.4749756,5.4746704h-76.6117554
							c-3.4682007,0-5.4750366-2.0097046-5.4750366-5.4746704V398.9837952c0-3.6499634,2.0068359-5.4657898,5.4750366-5.4657898
							H665.4344482z"/>
					</g>
					<g>
						<path class="st9" d="M411.3666077,404.8755493c0,3.5873413-2.9101257,6.5067444-6.5099487,6.5067444
							c-3.5994873,0-6.5095825-2.9194031-6.5095825-6.5067444c0-3.6027222,2.9100952-6.5188904,6.5095825-6.5188904
							C408.4564819,398.3566589,411.3666077,401.2728271,411.3666077,404.8755493z"/>
						<path class="st9" d="M381.7717285,422.9154358c0,3.6030579-2.9161987,6.5127869-6.5095825,6.5127869
							c-3.5997925,0-6.5099182-2.909729-6.5099182-6.5127869c0-3.5905457,2.9101257-6.5035095,6.5099182-6.5035095
							C378.8555298,416.4119263,381.7717285,419.3248901,381.7717285,422.9154358z"/>
						<path class="st9" d="M381.7717285,459.0263062c0,3.5966187-2.9161987,6.5160217-6.5095825,6.5160217
							c-3.5997925,0-6.5099182-2.9194031-6.5099182-6.5160217c0-3.5966492,2.9101257-6.5067139,6.5099182-6.5067139
							C378.8555298,452.5195923,381.7717285,455.429657,381.7717285,459.0263062z"/>
						<path class="st9" d="M381.7717285,493.3592224c0,3.6030579-2.9161987,6.5159912-6.5095825,6.5159912
							c-3.5997925,0-6.5099182-2.9129333-6.5099182-6.5159912c0-3.593689,2.9101257-6.5035095,6.5099182-6.5035095
							C378.8555298,486.8557129,381.7717285,489.7655334,381.7717285,493.3592224z"/>
						<path class="st9" d="M440.6666565,422.9154358c0,3.6030579-2.9100647,6.5127869-6.5098877,6.5127869
							c-3.5933838,0-6.509613-2.909729-6.509613-6.5127869c0-3.5905457,2.9162292-6.5035095,6.509613-6.5035095
							C437.7565918,416.4119263,440.6666565,419.3248901,440.6666565,422.9154358z"/>
						<path class="st9" d="M440.6666565,459.0263062c0,3.5966187-2.9100647,6.5160217-6.5098877,6.5160217
							c-3.5933838,0-6.509613-2.9194031-6.509613-6.5160217c0-3.5966492,2.9162292-6.5067139,6.509613-6.5067139
							C437.7565918,452.5195923,440.6666565,455.429657,440.6666565,459.0263062z"/>
						<path class="st9" d="M440.6666565,493.3592224c0,3.6030579-2.9100647,6.5159912-6.5098877,6.5159912
							c-3.5933838,0-6.509613-2.9129333-6.509613-6.5159912c0-3.593689,2.9162292-6.5035095,6.509613-6.5035095
							C437.7565918,486.8557129,440.6666565,489.7655334,440.6666565,493.3592224z"/>
						<path class="st9" d="M411.3666077,509.6398315c0,3.5933838-2.9101257,6.5127563-6.5099487,6.5127563
							c-3.5994873,0-6.5095825-2.9193726-6.5095825-6.5127563c0-3.6030273,2.9100952-6.5160522,6.5095825-6.5160522
							C408.4564819,503.1237793,411.3666077,506.0368042,411.3666077,509.6398315z"/>
					</g>
					<g>
						<path class="st10" d="M605.7618408,504.6101685c0,3.5933838-2.9161987,6.5066833-6.5096436,6.5066833
							c-3.5997925,0-6.5098877-2.9132996-6.5098877-6.5066833c0-3.5997925,2.9100952-6.5128174,6.5098877-6.5128174
							C602.8456421,498.0973511,605.7618408,501.010376,605.7618408,504.6101685z"/>
						<path class="st10" d="M605.7618408,472.349884c0,3.5965881-2.9161987,6.5067139-6.5096436,6.5067139
							c-3.5997925,0-6.5098877-2.9101257-6.5098877-6.5067139c0-3.6027222,2.9100952-6.5063477,6.5098877-6.5063477
							C602.8456421,465.8435364,605.7618408,468.7471619,605.7618408,472.349884z"/>
						<path class="st10" d="M605.7618408,440.0928345c0,3.5937195-2.9161987,6.5034485-6.5096436,6.5034485
							c-3.5997925,0-6.5098877-2.909729-6.5098877-6.5034485c0-3.6026917,2.9100952-6.5128479,6.5098877-6.5128479
							C602.8456421,433.5799866,605.7618408,436.4901428,605.7618408,440.0928345z"/>
						<path class="st10" d="M605.7618408,407.8296509c0,3.5933533-2.9161987,6.5064087-6.5096436,6.5064087
							c-3.5997925,0-6.5098877-2.9130554-6.5098877-6.5064087c0-3.6030579,2.9100952-6.5098877,6.5098877-6.5098877
							C602.8456421,401.3197632,605.7618408,404.226593,605.7618408,407.8296509z"/>
						<path class="st10" d="M632.9860229,407.8296509c0,3.5933533-2.90979,6.5064087-6.503479,6.5064087
							c-3.5998535,0-6.5160522-2.9130554-6.5160522-6.5064087c0-3.6030579,2.9161987-6.5098877,6.5160522-6.5098877
							C630.0762329,401.3197632,632.9860229,404.226593,632.9860229,407.8296509z"/>
						<path class="st10" d="M660.2227783,407.8296509c0,3.5933533-2.9223022,6.5064087-6.5161133,6.5064087
							c-3.5933838,0-6.515625-2.9130554-6.515625-6.5064087c0-3.6030579,2.9222412-6.5098877,6.515625-6.5098877
							C657.3004761,401.3197632,660.2227783,404.226593,660.2227783,407.8296509z"/>
						<path class="st10" d="M632.9860229,506.3848572c0,3.5904846-2.90979,6.5098572-6.503479,6.5098572
							c-3.5998535,0-6.5160522-2.9193726-6.5160522-6.5098572c0-3.599823,2.9161987-6.5096436,6.5160522-6.5096436
							C630.0762329,499.8752136,632.9860229,502.7850342,632.9860229,506.3848572z"/>
						<path class="st10" d="M642.1610107,457.5492554c0,3.593689-2.90979,6.5067139-6.5031738,6.5067139
							c-3.5997925,0-6.5223999-2.9130249-6.5223999-6.5067139c0-3.5995178,2.9226074-6.5160217,6.5223999-6.5160217
							C639.2512207,451.0332336,642.1610107,453.9497375,642.1610107,457.5492554z"/>
						<path class="st10" d="M660.2227783,506.3848572c0,3.5904846-2.9223022,6.5098572-6.5161133,6.5098572
							c-3.5933838,0-6.515625-2.9193726-6.515625-6.5098572c0-3.599823,2.9222412-6.5096436,6.515625-6.5096436
							C657.3004761,499.8752136,660.2227783,502.7850342,660.2227783,506.3848572z"/>
					</g>
					<g>
						<path class="st7" d="M489.7466431,504.6101685c0,3.5933838-2.9161682,6.5066833-6.509613,6.5066833
							c-3.6058655,0-6.5159912-2.9132996-6.5159912-6.5066833c0-3.5997925,2.9101257-6.5128174,6.5159912-6.5128174
							C486.8304749,498.0973511,489.7466431,501.010376,489.7466431,504.6101685z"/>
						<path class="st7" d="M489.7466431,473.5289612c0,3.6030273-2.9161682,6.5127869-6.509613,6.5127869
							c-3.6058655,0-6.5159912-2.9097595-6.5159912-6.5127869c0-3.5933838,2.9101257-6.5067444,6.5159912-6.5067444
							C486.8304749,467.0222168,489.7466431,469.9355774,489.7466431,473.5289612z"/>
						<path class="st7" d="M489.7466431,442.4573975c0,3.5901489-2.9161682,6.5127563-6.509613,6.5127563
							c-3.6058655,0-6.5159912-2.9226074-6.5159912-6.5127563c0-3.6030579,2.9101257-6.5131836,6.5159912-6.5131836
							C486.8304749,435.9442139,489.7466431,438.8543396,489.7466431,442.4573975z"/>
						<path class="st7" d="M489.7466431,411.3822937c0,3.593689-2.9161682,6.5066528-6.509613,6.5066528
							c-3.6058655,0-6.5159912-2.9129639-6.5159912-6.5066528c0-3.5966187,2.9101257-6.5067444,6.5159912-6.5067444
							C486.8304749,404.8755493,489.7466431,407.785675,489.7466431,411.3822937z"/>
						<path class="st7" d="M512.5310059,431.5134583c0,3.5872498-2.9164734,6.4941711-6.5098572,6.4941711
							s-6.5160828-2.9069214-6.5160828-6.4941711c0-3.6027222,2.922699-6.5157471,6.5160828-6.5157471
							S512.5310059,427.9107361,512.5310059,431.5134583z"/>
						<path class="st7" d="M525.5502319,459.0263062c0,3.5966187-2.90979,6.5160217-6.5095825,6.5160217
							c-3.5933838,0-6.5096436-2.9194031-6.5096436-6.5160217c0-3.5966492,2.9162598-6.5067139,6.5096436-6.5067139
							C522.6404419,452.5195923,525.5502319,455.429657,525.5502319,459.0263062z"/>
						<path class="st7" d="M538.5761719,486.5516968c0,3.5933838-2.9161987,6.5127563-6.5159912,6.5127563
							c-3.5998535,0-6.5099487-2.9193726-6.5099487-6.5127563c0-3.5966187,2.9100952-6.5099487,6.5099487-6.5099487
							C535.6599731,480.041748,538.5761719,482.9550781,538.5761719,486.5516968z"/>
						<path class="st7" d="M556.0357666,504.6101685c0,3.5933838-2.9100342,6.5066833-6.503418,6.5066833
							c-3.5998535,0-6.5160522-2.9132996-6.5160522-6.5066833c0-3.5997925,2.9161987-6.5128174,6.5160522-6.5128174
							C553.1257324,498.0973511,556.0357666,501.010376,556.0357666,504.6101685z"/>
						<path class="st7" d="M556.0357666,473.5289612c0,3.6030273-2.9100342,6.5127869-6.503418,6.5127869
							c-3.5998535,0-6.5160522-2.9097595-6.5160522-6.5127869c0-3.5933838,2.9161987-6.5067444,6.5160522-6.5067444
							C553.1257324,467.0222168,556.0357666,469.9355774,556.0357666,473.5289612z"/>
						<path class="st7" d="M556.0357666,442.4573975c0,3.5901489-2.9100342,6.5127563-6.503418,6.5127563
							c-3.5998535,0-6.5160522-2.9226074-6.5160522-6.5127563c0-3.6030579,2.9161987-6.5131836,6.5160522-6.5131836
							C553.1257324,435.9442139,556.0357666,438.8543396,556.0357666,442.4573975z"/>
						<path class="st7" d="M556.0357666,411.3822937c0,3.593689-2.9100342,6.5066528-6.503418,6.5066528
							c-3.5998535,0-6.5160522-2.9129639-6.5160522-6.5066528c0-3.5966187,2.9161987-6.5067444,6.5160522-6.5067444
							C553.1257324,404.8755493,556.0357666,407.785675,556.0357666,411.3822937z"/>
					</g>
					<g>
						<path class="st11" d="M282.2693176,409.8991394c0,3.5933838-2.9162598,6.5127869-6.5160828,6.5127869
							c-3.5872498,0-6.509552-2.9194031-6.509552-6.5127869c0-3.6030273,2.9223022-6.5192566,6.509552-6.5192566
							C279.3530579,403.3798828,282.2693176,406.2961121,282.2693176,409.8991394z"/>
						<path class="st11" d="M307.7249146,409.8991394c0,3.5933838-2.9162598,6.5127869-6.5096436,6.5127869
							c-3.599823,0-6.509552-2.9194031-6.509552-6.5127869c0-3.6030273,2.909729-6.5192566,6.509552-6.5192566
							C304.8086548,403.3798828,307.7249146,406.2961121,307.7249146,409.8991394z"/>
						<path class="st11" d="M332.9360962,409.8991394c0,3.5933838-2.9161682,6.5127869-6.509552,6.5127869
							c-3.599823,0-6.5099487-2.9194031-6.5099487-6.5127869c0-3.6030273,2.9101257-6.5192566,6.5099487-6.5192566
							C330.019928,403.3798828,332.9360962,406.2961121,332.9360962,409.8991394z"/>
						<path class="st11" d="M284.6399536,506.3848572c0,3.5904846-2.9162292,6.5098572-6.509613,6.5098572
							c-3.599823,0-6.5159912-2.9193726-6.5159912-6.5098572c0-3.599823,2.9161682-6.5096436,6.5159912-6.5096436
							C281.7237244,499.8752136,284.6399536,502.7850342,284.6399536,506.3848572z"/>
						<path class="st11" d="M299.7289124,475.893158c0,3.5998535-2.9161682,6.5131226-6.509552,6.5131226
							c-3.5937805,0-6.5099487-2.913269-6.5099487-6.5131226c0-3.5872498,2.9161682-6.5063782,6.5099487-6.5063782
							C296.8127441,469.3867798,299.7289124,472.3059082,299.7289124,475.893158z"/>
						<path class="st11" d="M316.5990601,444.5175171c0,3.6026917-2.90979,6.5157166-6.509613,6.5157166
							c-3.5937195,0-6.5099487-2.9130249-6.5099487-6.5157166c0-3.5872803,2.9162292-6.5098877,6.5099487-6.5098877
							C313.68927,438.0076294,316.5990601,440.9302368,316.5990601,444.5175171z"/>
						<path class="st11" d="M310.089447,506.3848572c0,3.5904846-2.9161987,6.5098572-6.5099487,6.5098572
							c-3.5933838,0-6.5095825-2.9193726-6.5095825-6.5098572c0-3.599823,2.9161987-6.5096436,6.5095825-6.5096436
							C307.1732483,499.8752136,310.089447,502.7850342,310.089447,506.3848572z"/>
						<path class="st11" d="M335.3067627,506.3848572c0,3.5904846-2.9161682,6.5098572-6.5098877,6.5098572
							c-3.5994873,0-6.509613-2.9193726-6.509613-6.5098572c0-3.599823,2.9101257-6.5096436,6.509613-6.5096436
							C332.3905945,499.8752136,335.3067627,502.7850342,335.3067627,506.3848572z"/>
					</g>
				</g>
			</g>
		</g>
	</g>
</g>
<g id="Layer_2">
</g>
</svg>
