<?xml version="1.0" encoding="utf-8"?>
<!-- Generator: Adobe Illustrator 22.0.1, SVG Export Plug-In . SVG Version: 6.00 Build 0)  -->
<svg version="1.1" id="Layer_1" xmlns="http://www.w3.org/2000/svg" xmlns:xlink="http://www.w3.org/1999/xlink" x="0px" y="0px"
	 viewBox="0 0 925.9 495.4" style="enable-background:new 0 0 925.9 495.4;" xml:space="preserve">
<style type="text/css">
	.st0{fill:#C34868;}
	.st1{fill:#E9577C;}
	.st2{fill:#C2D846;}
	.st3{fill:#FAD658;}
	.st4{fill:#2E98CB;}
	.st5{fill:#E37CE8;}
	.st6{fill:#C69C6D;}
	.st7{fill:#47D68F;}
	.st8{fill:#F15A24;}
	.st9{fill:#FCFCFC;}
	.st10{fill:#FFFFFF;}
</style>
<g id="Layer_1_1_">
	<g>
		<g>
			<g>
				<g>
					<g>
						<polygon class="st0" points="172.1,140.8 20.5,140.8 69.1,85.2 20.5,30.4 172.1,30.4 						"/>
					</g>
					<g>
						<polygon class="st0" points="769.4,140.8 921,140.8 872.4,85.2 921,30.4 769.4,30.4 						"/>
					</g>
					<g>
						<rect x="112.2" y="6.8" class="st1" width="721.6" height="157.5"/>
					</g>
				</g>
			</g>
			<g>
				<path class="st1" d="M87.9,470.7c-1.8-1.4-2.6-3.7-2.6-7v-46.1c-3-2.1-8.8-4-17.2-5.6c-8.4-1.6-16.4-2.7-23.9-3.2
					c-2.6,4.9-4.5,10.9-5.6,17.9l-1.4,7c-0.2,1.6-0.9,5.3-2.1,10.9c-1.2,5.6-2.5,10.5-3.9,14.6c-1.4,4.1-2.8,7.3-4.2,9.7
					c-8.9,0-14.1-2.3-15.5-7c2.6-3.7,5.5-14.8,8.8-33.1l11.6-64.4C37,334,41.7,308,46.1,286.4c4.3-21.6,9-39.6,13.9-54.2
					c5.4-16.2,10.5-24.3,15.5-24.3c4.9,0,8.7,0.9,11.3,2.8c0,9.4,2.2,32,6.7,67.9c4.7,35.2,7,59.2,7,72.1c0,12.4,1.3,30.2,3.9,53.5
					c2.3,23.7,3.5,42.6,3.5,56.6c0,8-3.9,12-11.6,12C92.4,472.8,89.7,472.1,87.9,470.7z M84.9,396.2c-0.7-10.3-1.9-23.1-3.5-38.3
					c-5.4-53-8.1-85.5-8.1-97.4v-2.8c-2.3,2.3-5.6,13-9.7,31.8c-4.1,18.9-7.9,39.1-11.4,60.7c-3.5,21.6-5.4,35.9-5.6,42.9
					c9.8,2.8,20.3,4.2,31.3,4.2C79.8,397.2,82.1,396.9,84.9,396.2z"/>
				<path class="st1" d="M96.2,478.7c-5.2,0-9.1-1.1-12-3.4l0,0c-2.2-1.8-4.9-5.2-4.9-11.6v-42.5c-2.3-0.9-6.1-2.1-12.5-3.4
					c-6.7-1.3-13.1-2.2-19.2-2.8c-1.5,3.7-2.6,7.9-3.4,12.7l-1.4,7.1c-0.3,1.8-1,5.4-2.1,11.1c-1.2,5.9-2.6,11-4.1,15.3
					c-1.6,4.5-3.1,8.1-4.7,10.8l-1.7,2.9h-3.3c-14.7,0-19.6-6.1-21.1-11.2L5,460.9l1.6-2.3c0.9-1.4,3.6-7.1,7.8-30.8L26,363.5
					c5.1-30.4,9.9-56.7,14.3-78.2c4.4-21.7,9.1-40.2,14.1-54.9c6.6-19.8,12.9-28.3,21.1-28.3c6.3,0,11.1,1.3,14.7,3.9l2.4,1.8v3
					c0,9.1,2.2,31.7,6.6,67.1c4.8,35.7,7.1,59.6,7.1,72.8c0,12.2,1.3,30,3.8,52.8c2.4,23.9,3.6,43.1,3.6,57.3
					C113.7,472.1,107.1,478.7,96.2,478.7z M91.6,466.1c0.1,0.1,1.1,0.8,4.6,0.8c4,0,5.7-0.8,5.7-6c0-13.8-1.2-32.6-3.5-56
					c-2.6-23.2-3.9-41.4-3.9-54c0-12.6-2.3-36.5-7-71.3c-4-32.4-6.2-53.8-6.7-64.9c-1.2-0.3-2.9-0.6-5.2-0.6
					c-0.7,0.4-4.5,3.3-10.1,20.2c-4.8,14.3-9.4,32.3-13.7,53.5c-4.3,21.4-9.1,47.6-14.2,77.9L26,429.9c-3.3,18.4-5.8,27.1-7.8,31.6
					c1.1,0.6,2.9,1.1,5.1,1.3c0.7-1.6,1.4-3.4,2.1-5.5c1.3-3.8,2.5-8.5,3.7-13.9c1.4-6.8,1.9-9.5,2-10.5l0.1-0.3l1.4-7
					c1.2-7.4,3.3-14.1,6.2-19.5l1.8-3.4l3.8,0.2c7.7,0.5,16,1.6,24.7,3.3c9.5,1.8,15.7,3.9,19.5,6.6l2.5,1.8v49.2
					C91.2,465.3,91.5,466,91.6,466.1z M77.9,403.1c-11.5,0-22.6-1.5-32.9-4.4l-4.4-1.3l0.2-4.6c0.2-7.3,2.1-21.6,5.7-43.7
					c3.5-21.6,7.4-42.1,11.5-61c6-27.7,9-32.4,11.3-34.7l10.1-10.1v17.1c0,11.7,2.7,44.3,8.1,96.8c1.6,15.3,2.8,28.3,3.5,38.5
					l0.3,4.9l-4.8,1.2C83,402.7,80.3,403.1,77.9,403.1z M52.8,388.5c8,1.9,16.4,2.8,25.1,2.8c0.2,0,0.5,0,0.8,0
					c-0.7-9.2-1.8-20.2-3.1-32.8c-2.9-28.2-5-50.4-6.3-66.9c-4,18.4-7.7,38.4-11.2,59.5C55.3,368.2,53.5,380.8,52.8,388.5z"/>
			</g>
			<g>
				<path class="st2" d="M207.7,405.7c-16.4-56.5-30.6-108.4-42.6-155.8v115.3c0,9.8,0.9,26.6,2.8,50.3c1.6,25.8,2.5,42.4,2.5,49.9
					c0,2.1-1.3,3.9-3.9,5.5c-2.6,1.5-5.5,2.3-8.8,2.3c-4.9,0-7.4-1.9-7.4-5.6l0.7-10.2c0.5-7.5,0.7-12.4,0.7-14.8
					c0-12.4-0.7-32.1-2.1-59.1c-1.4-27.4-2.1-44.1-2.1-49.9v-45c0-7.3,0.4-18,1.1-32.4c0.9-12.4,1.4-23.2,1.4-32.4v-2.1
					c0-11.7,2.6-17.6,7.7-17.6c3,0,6.9,5.2,11.6,15.5c7.7,16.9,17.6,47.1,29.5,90.7c6.8,25.3,14.8,57.9,23.9,97.8
					c-0.2-0.9,1.6,7.2,5.6,24.3l0.4,1.8c0-22.7,0.2-43.1,0.7-61.2l0.7-61.2V207.7c0.9-5.9,4.7-8.8,11.3-8.8c6.3,0,9.5,4.6,9.5,13.7
					v2.1c-1.4,2.8-2.1,6.2-2.1,10.2c0,14.3-0.4,35.9-1.1,64.7c-0.7,29.1-1.1,50.9-1.1,65.4v107.3c0,3.8-1,7.3-3,10.7
					c-2,3.4-4.4,5.1-7.2,5.1C231.8,478.1,222.2,454,207.7,405.7z"/>
				<path class="st2" d="M236.5,484c-5.6,0-9.7-5.5-16.2-21.8c-4.8-12.2-11-30.6-18.3-54.8l0-0.1c-11.3-39-21.7-76.2-31-111.1v69
					c0,9.7,0.9,26.5,2.8,49.8c1.7,26.3,2.5,42.8,2.5,50.4c0,3-1.2,7.2-6.8,10.5c-3.5,2.1-7.5,3.1-11.8,3.1c-9.8,0-13.3-6-13.3-11.5
					l0-0.4l0.7-10.2c0.5-7.3,0.7-12.2,0.7-14.4c0-12.3-0.7-32-2.1-58.8c-1.4-27.8-2.1-44.2-2.1-50.2v-45c0-7.3,0.4-18.3,1.1-32.6
					c0.9-12.4,1.4-23.2,1.4-32.1v-2.1c0-19.4,7.4-23.5,13.6-23.5c5.9,0,10.9,5.5,17,18.9c7.8,17.1,17.9,47.9,29.9,91.6
					c5.5,20.4,11.7,45.7,18.7,75.4c0.1-3.9,0.2-7.7,0.3-11.4l0.7-61.1V207.2l0.1-0.5c1.4-8.8,7.6-13.8,17.1-13.8
					c4.6,0,15.4,1.9,15.4,19.6v3.5l-0.6,1.2c-1,2-1.5,4.5-1.5,7.6c0,14.3-0.4,36.1-1.1,64.9c-0.7,28.9-1.1,50.9-1.1,65.3v107.3
					c0,4.8-1.3,9.4-3.8,13.7C244.9,482.6,240,484,236.5,484z M223.2,435.3c8.1,24.4,12.4,33.1,14.4,36.1c0.3-0.4,0.7-0.8,1-1.4
					c1.5-2.5,2.2-5,2.2-7.7V355c0-14.5,0.4-36.6,1.1-65.6c0.7-28.6,1.1-50.3,1.1-64.6c0-4.3,0.7-8.1,2.1-11.5v-0.8
					c0-7.8-2.3-7.8-3.6-7.8c-4.2,0-5,1.4-5.3,3.4v103.6l-0.7,61.3c-0.5,17.9-0.7,38.4-0.7,61.1L223.2,435.3z M156.3,467.2
					c0.3,0.1,0.8,0.1,1.4,0.1c2.2,0,4.1-0.5,5.8-1.5c0.5-0.3,0.8-0.6,1-0.7c0-7.5-0.8-24-2.4-49.2c-1.9-23.6-2.8-40.6-2.8-50.7V213
					c-0.7-1.1-1.3-1.9-1.8-2.4c-0.6,1.2-1.6,4.2-1.6,11.1v2.1c0,9.2-0.5,20.2-1.4,32.8c-0.7,14-1,24.8-1,31.9v45
					c0,5.7,0.7,22.4,2.1,49.6c1.4,26.9,2.1,46.9,2.1,59.4c0,2.5-0.2,7.4-0.7,15.1L156.3,467.2z M164.6,465L164.6,465L164.6,465z
					 M213.3,404c3.5,11.8,6.6,21.5,9.3,29.6l0-0.1l-4.2-18.1c-0.5-2.3-1-4.3-1.2-5.9l-0.1,0l0.1,0c0,0,0-0.1,0-0.1l-0.2,0
					c-9.1-39.6-17.1-72.4-23.9-97.6c-11.5-42.1-21.2-71.9-28.7-88.7l6.4,25.2C182.7,295.5,197,347.9,213.3,404z"/>
			</g>
			<g>
				<path class="st3" d="M312.6,470.2c-2-3.4-3-7.6-3-12.5c0-7.7,0.5-17.2,1.4-28.5l0.7-9.1l0.7-18.6c0-8.2-0.8-26.5-2.5-54.9
					c-1.6-28.4-2.5-46.7-2.5-54.9c0-0.7,0.1-2,0.2-4c0.1-2,0.2-5.1,0.2-9.3c0.2-4.7,0.4-10.4,0.4-17.2c0-17.1-1.2-28-3.5-32.7
					c-1.4,0-4.5,0.4-9.1,1.1l-9.8,0.7c-3,0-5.7-0.9-8.1-2.6c-2.3-1.8-3.5-4-3.5-6.9c0-2.8,2.8-5.3,8.4-7.4c8.2-2.8,22.2-4.8,41.8-6
					c8-0.5,12.8-0.7,14.4-0.7c2.8,0,5.4,0.9,7.7,2.8c2.3,1.9,3.5,4.2,3.5,7s-1,5.1-3,6.9c-2,1.8-4.5,2.6-7.6,2.6l-6.3-0.4
					c-1.9-0.2-4-0.4-6.3-0.4h-3.5c1.6,15.9,2.5,30.4,2.5,43.3l-0.4,22.5c-0.2,6.8-0.4,14.4-0.4,22.9c0,11.3,0.5,24.7,1.4,40.4
					c1.2,19.5,1.8,32.9,1.8,40.4c0,8.9,0.5,19.5,1.4,31.6c0.9,12.4,1.4,23,1.4,31.7c0,11.5-3.4,17.2-10.2,17.2
					C317.4,475.3,314.6,473.6,312.6,470.2z"/>
				<path class="st3" d="M320.9,481.2c-5.6,0-10.3-2.8-13.4-8c-2.5-4.3-3.8-9.5-3.8-15.5c0-7.9,0.5-17.6,1.4-29l0.7-9.1l0.7-18.4
					c0-7.8-0.8-26.1-2.5-54.3c-1.6-28.3-2.5-46.9-2.5-55.2c0-0.8,0.1-2.2,0.2-4.4c0.1-1.9,0.2-4.9,0.2-9l0-0.3
					c0.2-4.6,0.3-10.3,0.3-16.9c0-14.6-0.9-22.4-1.8-26.4c-1.1,0.1-2.4,0.3-4.1,0.6l-0.5,0l-10.3,0.7c-4.3,0-8.3-1.3-11.6-3.8
					c-3.8-2.9-5.9-6.9-5.9-11.6c0-5.5,4.1-9.9,12.3-12.9c8.9-3.1,23.1-5.1,43.6-6.3c10.9-0.6,13.6-0.7,14.8-0.7
					c4.2,0,8,1.4,11.4,4.1c3.8,3,5.7,7,5.7,11.6c0,4.5-1.7,8.4-5,11.3c-3.1,2.7-7,4.1-11.5,4.1l-0.3,0l-6.7-0.4
					c-0.8-0.1-1.7-0.2-2.6-0.2c1.2,13.6,1.9,26.1,1.9,37.3l-0.4,22.6c-0.2,6.8-0.4,14.4-0.4,22.8c0,11.1,0.5,24.6,1.4,40.1
					c1.2,19.8,1.8,33.1,1.8,40.8c0,8.7,0.5,19.2,1.4,31.2c0.9,12.6,1.4,23.4,1.4,32.1C337,478.2,326.9,481.2,320.9,481.2z
					 M313.8,278.5c0,4.2-0.1,7.4-0.2,9.5c-0.1,1.8-0.2,3.1-0.2,3.7c0,8.1,0.8,26.4,2.5,54.5c1.7,28.8,2.5,46.9,2.5,55.2l-0.7,18.9
					l-0.7,9.4c-0.9,11.1-1.4,20.5-1.4,28c0,3.8,0.7,7,2.2,9.5l0,0c1.2,2,2.2,2.2,3.2,2.2c2.8,0,4.3-3.8,4.3-11.3
					c0-8.4-0.5-18.9-1.4-31.2c-0.9-12.2-1.4-23-1.4-32.1c0-7.3-0.6-20.8-1.7-40.1c-0.9-15.7-1.4-29.4-1.4-40.8
					c0-8.5,0.1-16.3,0.4-23.1l0.3-22.4c0-12.5-0.8-26.9-2.4-42.6l-0.7-6.5h10.1c2.5,0,4.8,0.1,6.8,0.4l6,0.3c2,0,3-0.7,3.5-1.2
					c0.6-0.5,1-1.1,1-2.4c0-0.9-0.2-1.6-1.3-2.4c-1.3-1-2.6-1.5-4-1.5c-1,0-4.3,0.1-14.1,0.7c-19.1,1.1-32.6,3-40.3,5.7
					c-2.8,1-4,1.9-4.4,2.3c0.1,0.6,0.4,1,1.1,1.6c1.3,1,2.7,1.4,4.4,1.5l9.4-0.7c6.5-1,8.6-1.1,9.8-1.1h3.7l1.6,3.3
					c1.8,3.6,4.1,11.1,4.1,35.3C314.1,267.8,314,273.7,313.8,278.5z"/>
			</g>
			<g>
				<path class="st4" d="M415.5,476.3c-5.2-4.2-9.6-10-13.4-17.2c-6.8-12.7-11.8-30-15.1-52c-2.3-15.2-4.1-32.8-5.3-52.7l-0.4-18.6
					v-19c-0.2-6.1-0.4-13.5-0.4-22.2c0-14.1,0.6-26.5,1.8-37.3c0.9-11.3,3.3-22.4,7-33.4c3.7-9.6,9.1-16.4,16.2-20.4
					c4.2-1.9,8.4-2.8,12.7-2.8c12.4,0,22.3,4.9,29.5,14.8c8,11,13.2,23.3,15.8,36.9c3.7,16.4,5.9,32.1,6.3,47.1
					c0.9,16.6,1.4,32.4,1.4,47.1v20c0,4-0.6,11.5-1.8,22.5c-0.9,8.7-1.4,16.1-1.4,22.2v1.4c-1.4,6.6-2.1,14.3-2.1,23.2
					c0,6.6-1.4,13.4-4.2,20.4c-2.8,7-6.8,13-12,17.9c-5.2,5.6-11,8.4-17.6,8.4C426.4,482.7,420.6,480.6,415.5,476.3z M445.4,450.3
					c2.8-7.7,4.9-17.2,6.2-28.3c1.3-11.1,2.4-23.7,3.3-37.8c0.5-6.1,0.7-13.9,0.7-23.6l-0.4-32.4c-0.5-12.7-1.9-28.5-4.2-47.5
					c-1.9-16.2-5.4-30.5-10.6-42.9c-2.3-5.9-5.3-10.4-8.8-13.7c-3.5-3.3-7.3-4.9-11.3-4.9c-5.9,0-10.2,4.6-13,13.7
					c-3.5,9.6-5.9,20.2-7,31.7c-1.4,12.4-2.2,24.3-2.5,35.5l-0.4,11.6c-0.2,3.3-0.4,7.7-0.4,13.4v1.4c0,15.7,1.6,35,4.9,58
					c3.7,31.2,9.3,53.3,16.5,66.5c4.7,8.2,9.6,12.3,14.8,12.3C438.1,463.3,442.1,459,445.4,450.3z"/>
				<path class="st4" d="M432.7,488.6c-7.7,0-14.8-2.6-21-7.7c-5.8-4.7-10.8-11.1-14.9-19.1c-7-13.1-12.3-31.3-15.7-53.9
					c-2.4-15.3-4.2-33.3-5.3-53.3l-0.4-18.9l0-19.1c-0.2-5.9-0.4-13.4-0.4-22.2c0-14.2,0.6-27,1.8-37.9c1-11.5,3.4-23.2,7.3-34.7
					l0.1-0.2c4.2-10.9,10.5-18.7,18.8-23.4l0.5-0.3c5-2.2,10-3.3,15.1-3.3c14.3,0,25.9,5.8,34.3,17.2c8.5,11.7,14.1,24.9,16.9,39.3
					c3.8,16.5,5.9,32.7,6.4,48c0.9,16.6,1.4,32.6,1.4,47.3v20c0,4.2-0.6,11.8-1.8,23.1c-0.9,8.4-1.4,15.7-1.4,21.5v2l-0.1,0.6
					c-1.3,6.1-2,13.5-2,22c0,7.3-1.6,14.9-4.6,22.6c-3.1,7.7-7.5,14.4-13.2,19.9C448.2,485.1,440.9,488.6,432.7,488.6z M395.4,225.9
					c-3.6,10.5-5.8,21.2-6.7,31.9c-1.2,10.6-1.7,23-1.7,36.8c0,8.6,0.1,16,0.3,21.9l0,19.2l0.4,18.5c1.1,19.4,2.9,37,5.2,52
					c3.2,21.3,8,38.2,14.5,50.1c3.4,6.6,7.4,11.8,11.9,15.5h0c4.1,3.4,8.5,5,13.5,5c4.9,0,9.2-2.1,13.2-6.5l0.3-0.3
					c4.5-4.3,8.1-9.7,10.6-15.9c2.5-6.3,3.8-12.4,3.8-18.2c0-9,0.7-17,2.1-23.8v-0.8c0-6.3,0.5-14,1.4-22.8
					c1.1-10.8,1.7-18.1,1.7-21.9v-20c0-14.5-0.5-30.2-1.4-46.8c-0.5-14.7-2.5-30.2-6.2-46.1c-2.4-12.9-7.4-24.5-14.9-34.8
					c-6.1-8.3-14.2-12.3-24.8-12.3c-3.3,0-6.6,0.7-10,2.2C403,212,398.5,217.8,395.4,225.9z M433.4,469.2c-7.4,0-14.1-5.1-19.9-15.3
					c-7.8-14-13.4-36.4-17.3-68.7c-3.3-23-5-42.8-5-58.7v-1.4c0-5.8,0.1-10.2,0.4-13.7L392,300c0.2-11.3,1.1-23.4,2.5-36
					c1.2-11.8,3.7-22.9,7.3-32.9c4.6-14.7,12.6-17.7,18.6-17.7c5.5,0,10.7,2.2,15.3,6.5c4.1,3.9,7.6,9.2,10.2,15.8
					c5.3,12.8,9,27.8,10.9,44.4c2.3,19,3.8,35.2,4.3,47.9l0.4,32.5c0,9.7-0.2,17.8-0.7,24.1c-0.9,14-2.1,26.8-3.4,38
					c-1.3,11.5-3.5,21.5-6.5,29.6l0,0.1C446.7,463.6,440.8,469.2,433.4,469.2z M420.4,225.2c-2.9,0-5.4,3.2-7.4,9.5l-0.1,0.3
					c-3.3,9.1-5.6,19.3-6.7,30.2c-1.4,12.3-2.2,24.1-2.4,35l-0.4,11.9c-0.2,3.1-0.3,7.5-0.3,12.9v1.4c0,15.4,1.6,34.6,4.9,57.2
					c3.7,30.4,9,52,15.8,64.4c3.4,5.9,6.8,9.3,9.6,9.3c1.4,0,3.9-2.4,6.4-9.2c2.6-7.3,4.6-16.3,5.8-26.9c1.3-11,2.4-23.6,3.3-37.5
					c0.5-6,0.7-13.8,0.7-23.2l-0.4-32.3c-0.5-12.3-1.9-28.1-4.2-46.8c-1.8-15.6-5.2-29.5-10.1-41.4c-2-5.1-4.5-9-7.4-11.7
					C425.2,226.3,422.9,225.2,420.4,225.2z"/>
			</g>
			<g>
				<path class="st5" d="M569.5,405.7c-16.4-56.5-30.6-108.4-42.5-155.8v115.3c0,9.8,0.9,26.6,2.8,50.3c1.6,25.8,2.5,42.4,2.5,49.9
					c0,2.1-1.3,3.9-3.9,5.5c-2.6,1.5-5.5,2.3-8.8,2.3c-4.9,0-7.4-1.9-7.4-5.6l0.7-10.2c0.5-7.5,0.7-12.4,0.7-14.8
					c0-12.4-0.7-32.1-2.1-59.1c-1.4-27.4-2.1-44.1-2.1-49.9v-45c0-7.3,0.4-18,1.1-32.4c0.9-12.4,1.4-23.2,1.4-32.4v-2.1
					c0-11.7,2.6-17.6,7.7-17.6c3,0,6.9,5.2,11.6,15.5c7.7,16.9,17.6,47.1,29.5,90.7c6.8,25.3,14.8,57.9,23.9,97.8
					c-0.2-0.9,1.6,7.2,5.6,24.3l0.4,1.8c0-22.7,0.2-43.1,0.7-61.2l0.7-61.2V207.7c0.9-5.9,4.7-8.8,11.3-8.8c6.3,0,9.5,4.6,9.5,13.7
					v2.1c-1.4,2.8-2.1,6.2-2.1,10.2c0,14.3-0.4,35.9-1.1,64.7c-0.7,29.1-1.1,50.9-1.1,65.4v107.3c0,3.8-1,7.3-3,10.7
					c-2,3.4-4.4,5.1-7.2,5.1C593.6,478.1,584,454,569.5,405.7z"/>
				<path class="st5" d="M598.3,484c-5.6,0-9.7-5.5-16.2-21.8c-4.8-12.2-11-30.6-18.3-54.8l0-0.1c-11.3-39-21.7-76.2-31-111.1v69
					c0,9.7,0.9,26.4,2.8,49.8c1.7,26.3,2.5,42.8,2.5,50.4c0,3-1.2,7.2-6.8,10.5c-3.5,2.1-7.5,3.1-11.8,3.1c-9.8,0-13.3-6-13.3-11.5
					l0-0.4l0.7-10.2c0.5-7.3,0.7-12.2,0.7-14.4c0-12.2-0.7-32-2.1-58.8c-1.4-27.8-2.1-44.2-2.1-50.2v-45c0-7.3,0.4-18.3,1.1-32.6
					c0.9-12.4,1.4-23.2,1.4-32.1v-2.1c0-19.4,7.4-23.5,13.6-23.5c5.9,0,10.9,5.5,17,18.9c7.8,17.1,17.9,47.9,29.9,91.6
					c5.5,20.4,11.7,45.7,18.7,75.4c0.1-3.9,0.2-7.7,0.3-11.4l0.7-61.1V207.2l0.1-0.5c1.4-8.8,7.6-13.8,17.1-13.8
					c4.6,0,15.4,1.9,15.4,19.6v3.5l-0.6,1.2c-1,2-1.5,4.5-1.5,7.6c0,14.3-0.4,36.1-1.1,64.9c-0.7,28.9-1.1,50.8-1.1,65.3v107.3
					c0,4.8-1.3,9.4-3.8,13.7C606.7,482.6,601.8,484,598.3,484z M585,435.3c8.1,24.4,12.4,33.1,14.4,36.1c0.4-0.4,0.7-0.9,1-1.4
					c1.5-2.5,2.2-5,2.2-7.7V355c0-14.5,0.4-36.6,1.1-65.6c0.7-28.6,1.1-50.3,1.1-64.6c0-4.3,0.7-8.2,2.1-11.5v-0.8
					c0-7.8-2.3-7.8-3.6-7.8c-4.2,0-5,1.4-5.3,3.4v103.6l-0.7,61.3c-0.5,17.9-0.7,38.4-0.7,61.1L585,435.3z M518.1,467.2
					c0.3,0.1,0.8,0.1,1.4,0.1c2.2,0,4.1-0.5,5.8-1.5c0.5-0.3,0.8-0.6,1-0.7c0-7.5-0.8-24-2.5-49.2c-1.9-23.6-2.8-40.7-2.8-50.7V213
					c-0.7-1.1-1.3-1.9-1.8-2.4c-0.6,1.2-1.6,4.2-1.6,11.1v2.1c0,9.2-0.5,20.2-1.4,32.8c-0.7,14-1,24.8-1,31.9v45
					c0,5.7,0.7,22.4,2.1,49.6c1.4,26.9,2.1,46.9,2.1,59.4c0,2.5-0.2,7.4-0.7,15.1L518.1,467.2z M575.2,404
					c3.5,11.8,6.6,21.5,9.3,29.6l0-0.1l-4.2-18.1c-0.5-2.3-1-4.3-1.2-5.9l-0.1,0l0.1,0c0,0,0-0.1,0-0.1l-0.2,0
					c-9.1-39.6-17.1-72.4-23.9-97.5c-11.5-42.1-21.2-71.9-28.7-88.7l6.4,25.2C544.6,295.5,558.9,347.9,575.2,404z"/>
			</g>
			<g>
				<path class="st6" d="M648.3,461.9c0-5.6,3.5-8.4,10.5-8.4h4.2c0.9,0.2,2,0.4,3.2,0.4c1.9,0,3.2-0.6,4-1.8
					c0.8-1.2,1.2-3.3,1.2-6.3c0-19.9-1.2-47.1-3.5-81.6c-2.1-35.9-3.2-62.9-3.2-81.2c0-6.6,0.1-12.5,0.4-17.9l0.4-17.9
					c0-7.7-0.4-14.2-1.1-19.3c-2.6,0.9-5.3,1.4-8.1,1.4c-5.4,0-8.1-2.8-8.1-8.4c0-2.8,1.7-5.3,5.1-7.4c3.4-2.1,7.8-3.6,13.2-4.6
					c9.8-1.6,18.2-2.5,25-2.5c2.8,0,5.2,0.9,7.2,2.8c2,1.9,3,4.1,3,6.7c0,2.6-0.8,4.8-2.3,6.7c-1.5,1.9-3.5,2.8-5.8,2.8
					c-1.4,0-2.6-0.1-3.5-0.4h-2.8c-2.3,0-4,0.5-5.1,1.6c-1.1,1.1-1.6,3-1.6,5.8c0,24.9,1.5,59.1,4.6,102.7
					c2.8,45.7,4.2,80.1,4.2,103v13.4c1.6-0.2,4-0.4,7-0.4c9.8,0,14.8,4.1,14.8,12.3v2.1l-8.8,6c-0.2,0-0.9,0.1-2.1,0.2
					c-1.2,0.1-3.5,0.2-7,0.2c-8,0.5-12.9,0.7-14.8,0.7C658.3,472.5,648.3,469,648.3,461.9z"/>
				<path class="st6" d="M678.5,478.4c-9.9,0-36.1,0-36.1-16.5c0-3.4,1.2-14.3,16.5-14.3h5l0.7,0.2c0.2,0.1,0.5,0.1,1,0.1
					c0.1-0.5,0.1-1.2,0.1-2.2c0-19.7-1.2-47-3.5-81.2c-2.1-35.9-3.2-63.3-3.2-81.6c0-6.7,0.1-12.8,0.4-18.2l0.3-17.8
					c0-4.4-0.1-8.5-0.4-12c-0.9,0.1-1.9,0.1-2.9,0.1c-8.6,0-14-5.5-14-14.3c0-3.4,1.4-8.4,7.9-12.4c4-2.5,9.2-4.3,15.3-5.4
					c10.2-1.7,18.9-2.5,26-2.5c4.3,0,8.2,1.5,11.3,4.4c3.2,3,4.9,6.8,4.9,11c0,4-1.2,7.5-3.6,10.4c-2.7,3.3-6.3,5-10.4,5
					c-1.6,0-2.9-0.1-4.2-0.4h-2.2c-0.3,0-0.5,0-0.7,0c0,0.3-0.1,0.8-0.1,1.5c0,24.6,1.5,59,4.6,102.3c2.8,45.7,4.2,80.4,4.2,103.4
					v7.1c0.4,0,0.7,0,1.1,0c18.7,0,20.7,12.7,20.7,18.2v5.2l-12.9,8.8h-1.8c-0.1,0-0.7,0.1-1.5,0.1c-1.4,0.1-3.7,0.2-7.4,0.2
					C685.6,478.1,680.5,478.4,678.5,478.4z M658.8,459.4c-4.6,0-4.6,1.1-4.6,2.5c0,0.9,4.3,4.6,24.3,4.6c1,0,4.3-0.1,14.4-0.7l0.3,0
					c4.4,0,5.9-0.1,6.4-0.1c0.2,0,0.5,0,0.7-0.1l4.9-3.3c-0.1-2.6-1-5.4-8.8-5.4c-3.4,0-5.3,0.2-6.2,0.3l-6.7,0.9V438
					c0-22.8-1.4-57.3-4.2-102.7c-3-43.4-4.6-78.1-4.6-103c0-4.5,1.1-7.8,3.3-10c2.2-2.2,5.3-3.3,9.3-3.3h3.6l0.7,0.2
					c0.2,0.1,0.8,0.2,2.1,0.2c0.5,0,0.8-0.1,1.2-0.6c0.7-0.8,1-1.7,1-3c0-0.7-0.1-1.4-1.1-2.4c-0.9-0.8-1.8-1.2-3.2-1.2
					c-6.4,0-14.5,0.8-24,2.4c-4.6,0.8-8.3,2.1-11,3.8c-1.4,0.9-2.3,1.8-2.3,2.4c0,1.7,0.4,2.2,0.4,2.2c0.1,0.1,0.6,0.3,1.8,0.3
					c2.1,0,4.1-0.3,6.1-1.1l6.9-2.5l1,7.3c0.7,5.4,1.1,12.2,1.1,20.1l-0.4,18.1c-0.2,5.4-0.3,11.3-0.3,17.8
					c0,18.1,1.1,45.3,3.2,80.9c2.3,34.4,3.5,62,3.5,81.9c0,4.4-0.7,7.5-2.3,9.7c-1.1,1.6-3.8,4.3-8.9,4.3c-1.4,0-2.6-0.1-3.8-0.4
					H658.8z M686,230.9C686,230.9,686,230.9,686,230.9S686,230.9,686,230.9z"/>
			</g>
			<g>
				<path class="st7" d="M755.2,473.2c-4-1.2-6-4.4-6-9.8V259c0-4-0.7-10-2.1-17.9c-1.6-7.3-2.5-13.2-2.5-17.9v-1.1
					c4-6.6,6.9-10.8,8.8-12.7c3.3,0,7.6-0.5,13-1.4c4.9-0.9,9.3-1.4,13-1.4c3.7,0,7.4,1.1,10.9,3.3c3.5,2.2,5.3,4.9,5.3,7.9
					c0,7-5.4,10.6-16.2,10.6h-4.9c-1.4-0.2-3.1-0.4-4.9-0.4c-2.1,0-3.4,0.1-3.9,0.4c0,8,0.5,17.6,1.4,28.8l0.7,9.8l0.7,19.3
					c0,4.5-0.4,11.3-1.1,20.4l-0.7,19.7l4.9-1.1c4.7-1.4,8.6-2.1,11.6-2.1c2.6,0,4.9,1,7,3c2.1,2,3.2,4.3,3.2,6.9
					c0,2.8-0.9,5.3-2.6,7.6c-1.8,2.2-3.9,3.3-6.5,3.3l-4.2-0.4h-4.6c-3.5,0-6,0.8-7.4,2.5v108.7l19.7-1.1c13.4,0,20,3,20,9.1v1.4
					c-1.4,2.8-4,5.1-7.7,6.9c-3.8,1.8-7.4,2.9-10.9,3.3l-11.6,0.4h-10.9C762.3,474.9,758.4,474.3,755.2,473.2z"/>
				<path class="st7" d="M766.8,480.8c-5,0-9.6-0.7-13.4-2c-3.8-1.2-10-4.7-10-15.5V259c0-3.6-0.7-9.3-2-16.8
					c-1.7-7.7-2.6-13.9-2.6-19.1v-2.7l0.9-1.4c5.7-9.4,8.2-12.3,9.7-13.8l1.7-1.7h2.4c2.9,0,7-0.4,12-1.3c5.2-1,9.9-1.5,14-1.5
					c4.9,0,9.6,1.4,14.1,4.3c6.6,4.2,8,9.3,8,12.9c0,4.9-2.2,16.5-22.1,16.5l-5.9-0.1c-0.6-0.1-1.2-0.2-1.9-0.2
					c0.2,6.6,0.6,14.2,1.3,22.7l0.7,9.9l0.7,19.5c0,4.8-0.3,11.6-1.1,20.9L773,319c4-1,7.4-1.5,10.3-1.5c4.1,0,7.9,1.6,11.1,4.6
					c3.3,3.1,5,7,5,11.2c0,4.2-1.3,7.9-3.9,11.2c-2.9,3.7-6.7,5.6-11.1,5.6l-0.5,0l-4-0.3h-4.3c-0.6,0-1.1,0-1.5,0.1v98.9l13.8-0.7
					c21.5,0,26,8.2,26,15.1v2.8l-0.6,1.2c-2,4-5.5,7.2-10.5,9.6c-4.3,2-8.5,3.3-12.6,3.8l-0.6,0.1l-11.6,0.4L766.8,480.8z
					 M750.5,223.7c0.1,4.2,0.8,9.6,2.3,16l0.1,0.3c1.5,8.4,2.2,14.6,2.2,19v204.3c0,3.7,1.1,4,1.7,4.2l0.3,0.1
					c2.6,0.9,5.9,1.4,9.6,1.4h10.9l11.1-0.3c2.8-0.4,5.8-1.4,8.9-2.8c1.9-0.9,3.4-2,4.3-3.1c-0.4-1.2-4.3-3-14-3l-25.8,1.4V344
					l1.4-1.7c2.6-3,6.6-4.5,11.9-4.5l5.1,0l3.9,0.3c0.5,0,1-0.2,1.7-1.1c0.9-1.2,1.4-2.4,1.4-3.9c0-0.7-0.2-1.5-1.3-2.6
					c-1.3-1.2-2.3-1.4-3-1.4c-2.5,0-5.8,0.6-9.9,1.9l-0.5,0.1l-12.3,2.6l1-27.5c0.7-9,1-15.7,1-19.9l-0.7-19.1l-0.7-9.6
					c-0.9-11.3-1.4-21.1-1.4-29.3v-3.7l3.3-1.6c1.4-0.7,3.1-1,6.5-1c2,0,3.8,0.1,5.4,0.4h4.5c10.3,0,10.3-3.3,10.3-4.6
					c0-1.1-1.4-2.2-2.5-2.9c-2.6-1.6-5.1-2.4-7.7-2.4c-3.3,0-7.3,0.4-11.9,1.3c-4.5,0.8-8.2,1.2-11.3,1.4
					C755,216.7,753.3,219.3,750.5,223.7z"/>
			</g>
			<g>
				<path class="st8" d="M836.4,461.9c0-5.6,3.5-8.4,10.5-8.4h4.2c0.9,0.2,2,0.4,3.2,0.4c1.9,0,3.2-0.6,4-1.8
					c0.8-1.2,1.2-3.3,1.2-6.3c0-19.9-1.2-47.1-3.5-81.6c-2.1-35.9-3.2-62.9-3.2-81.2c0-6.6,0.1-12.5,0.4-17.9l0.4-17.9
					c0-7.7-0.4-14.2-1.1-19.3c-2.6,0.9-5.3,1.4-8.1,1.4c-5.4,0-8.1-2.8-8.1-8.4c0-2.8,1.7-5.3,5.1-7.4c3.4-2.1,7.8-3.6,13.2-4.6
					c9.8-1.6,18.2-2.5,25-2.5c2.8,0,5.2,0.9,7.2,2.8c2,1.9,3,4.1,3,6.7c0,2.6-0.8,4.8-2.3,6.7c-1.5,1.9-3.5,2.8-5.8,2.8
					c-1.4,0-2.6-0.1-3.5-0.4h-2.8c-2.3,0-4,0.5-5.1,1.6c-1.1,1.1-1.6,3-1.6,5.8c0,24.9,1.5,59.1,4.6,102.7
					c2.8,45.7,4.2,80.1,4.2,103v13.4c1.6-0.2,4-0.4,7-0.4c9.8,0,14.8,4.1,14.8,12.3v2.1l-8.8,6c-0.2,0-0.9,0.1-2.1,0.2
					c-1.2,0.1-3.5,0.2-7,0.2c-8,0.5-12.9,0.7-14.8,0.7C846.5,472.5,836.4,469,836.4,461.9z"/>
				<path class="st8" d="M866.6,478.4c-9.9,0-36.1,0-36.1-16.5c0-3.4,1.2-14.3,16.5-14.3h5l0.7,0.2c0.2,0.1,0.5,0.1,1,0.1
					c0.1-0.5,0.1-1.2,0.1-2.2c0-19.7-1.2-47-3.5-81.2c-2.1-35.9-3.2-63.3-3.2-81.6c0-6.7,0.1-12.8,0.4-18.2l0.3-17.8
					c0-4.4-0.1-8.5-0.4-12c-0.9,0.1-1.9,0.1-2.9,0.1c-8.6,0-14-5.5-14-14.3c0-3.4,1.4-8.4,7.9-12.4c4-2.5,9.2-4.3,15.3-5.4
					c10.2-1.7,18.9-2.5,26-2.5c4.3,0,8.2,1.5,11.3,4.4c3.2,3,4.9,6.8,4.9,11c0,4-1.2,7.5-3.6,10.4c-2.7,3.3-6.3,5-10.4,5
					c-1.6,0-2.9-0.1-4.2-0.4h-2.2c-0.3,0-0.5,0-0.7,0c0,0.3-0.1,0.8-0.1,1.5c0,24.6,1.5,59,4.6,102.3c2.8,45.7,4.2,80.4,4.2,103.4
					v7.1c0.4,0,0.7,0,1.1,0c18.7,0,20.7,12.7,20.7,18.2v5.2l-12.9,8.8h-1.8c-0.1,0-0.7,0.1-1.5,0.1c-1.4,0.1-3.7,0.2-7.4,0.2
					C873.7,478.1,868.7,478.4,866.6,478.4z M846.9,459.4c-4.6,0-4.6,1.1-4.6,2.5c0,0.9,4.3,4.6,24.3,4.6c1,0,4.3-0.1,14.4-0.7l0.3,0
					c4.4,0,5.9-0.1,6.4-0.1c0.2,0,0.5,0,0.7-0.1l4.9-3.3c-0.1-2.6-1-5.4-8.8-5.4c-3.4,0-5.3,0.2-6.2,0.3l-6.7,0.9V438
					c0-22.8-1.4-57.3-4.2-102.7c-3-43.4-4.6-78.1-4.6-103c0-4.5,1.1-7.8,3.3-10c2.2-2.2,5.3-3.3,9.3-3.3h3.6l0.7,0.2
					c0.2,0.1,0.8,0.2,2.1,0.2c0.5,0,0.8-0.1,1.2-0.6c0.7-0.8,1-1.7,1-3c0-0.7-0.1-1.4-1.1-2.4c-0.9-0.8-1.8-1.2-3.2-1.2
					c-6.4,0-14.5,0.8-24,2.4c-4.6,0.8-8.3,2.1-11,3.8c-1.4,0.9-2.3,1.8-2.3,2.4c0,1.7,0.4,2.2,0.4,2.2c0.1,0.1,0.6,0.3,1.8,0.3
					c2.1,0,4.1-0.3,6.1-1.1l6.9-2.5l1,7.3c0.7,5.4,1.1,12.2,1.1,20.1l-0.4,18.1c-0.2,5.4-0.3,11.3-0.3,17.8
					c0,18.1,1.1,45.3,3.2,80.9c2.3,34.4,3.5,62,3.5,81.9c0,4.4-0.7,7.5-2.3,9.7c-1.1,1.6-3.8,4.3-8.9,4.3c-1.4,0-2.6-0.1-3.8-0.4
					H846.9z M874.1,230.9C874.1,230.9,874.1,230.9,874.1,230.9S874.1,230.9,874.1,230.9z"/>
			</g>
			<g>
				<g>
					<path class="st0" d="M208.2,136.9c-6.2-2.6-11-6.4-14.3-11.3c-3.4-4.9-5-10.6-5-17.1V105c0-0.5,0.2-1,0.5-1.3
						c0.4-0.4,0.8-0.5,1.3-0.5h17.7c0.5,0,1,0.2,1.3,0.5c0.4,0.4,0.5,0.8,0.5,1.3v2.3c0,4.1,1.9,7.6,5.7,10.5
						c3.8,2.8,9,4.3,15.5,4.3c5.5,0,9.6-1.2,12.2-3.5c2.7-2.3,4-5.2,4-8.6c0-2.5-0.8-4.6-2.5-6.3c-1.7-1.7-3.9-3.2-6.7-4.5
						c-2.8-1.3-7.4-3.1-13.6-5.3c-6.9-2.4-12.8-4.8-17.6-7.3c-4.8-2.5-8.8-5.9-12.1-10.1c-3.3-4.3-4.9-9.6-4.9-15.9
						c0-6.2,1.6-11.6,4.8-16.3c3.2-4.6,7.6-8.2,13.3-10.7c5.7-2.5,12.2-3.7,19.7-3.7c7.8,0,14.8,1.4,21,4.2
						c6.1,2.8,10.9,6.7,14.4,11.7c3.5,5,5.2,10.8,5.2,17.4v2.3c0,0.5-0.2,1-0.5,1.3c-0.4,0.4-0.8,0.5-1.3,0.5h-17.8
						c-0.5,0-1-0.2-1.3-0.5c-0.4-0.4-0.5-0.8-0.5-1.3v-1.2c0-4.3-1.8-8-5.3-11.1c-3.6-3-8.4-4.6-14.6-4.6c-4.9,0-8.6,1-11.4,3.1
						c-2.7,2.1-4.1,4.9-4.1,8.5c0,2.6,0.8,4.8,2.4,6.5c1.6,1.8,4,3.3,7.1,4.7c3.1,1.4,8,3.3,14.6,5.7c7.3,2.7,13.1,5.1,17.3,7.1
						c4.2,2.1,8,5.1,11.3,9.2c3.4,4.1,5,9.4,5,15.9c0,9.7-3.6,17.4-10.7,23c-7.1,5.6-16.8,8.4-29,8.4
						C221.7,140.8,214.4,139.5,208.2,136.9z"/>
					<path class="st0" d="M301.8,136.1c-6.1-3.1-10.8-7.6-14.1-13.2c-3.3-5.7-5-12.2-5-19.7V67.4c0-7.4,1.7-14,5-19.7
						c3.3-5.7,8-10.1,14.1-13.2c6.1-3.1,13.2-4.6,21.2-4.6c8,0,14.9,1.5,21,4.4c6,2.9,10.7,7.1,14.1,12.5c3.4,5.4,5,11.7,5,18.8
						c0,0.9-0.6,1.5-1.9,1.7l-18.1,1.1h-0.3c-1,0-1.5-0.6-1.5-1.7c0-5.5-1.7-9.9-5-13.2c-3.4-3.3-7.8-5-13.2-5c-5.6,0-10,1.7-13.4,5
						c-3.4,3.3-5,7.7-5,13.2v37.3c0,5.4,1.7,9.7,5,13c3.4,3.3,7.8,5,13.4,5c5.5,0,9.9-1.6,13.2-5c3.4-3.3,5-7.6,5-13
						c0-1.1,0.6-1.7,1.9-1.7l18.1,0.8c0.5,0,1,0.2,1.3,0.5c0.4,0.3,0.5,0.7,0.5,1.1c0,7.1-1.7,13.4-5,18.9
						c-3.4,5.5-8.1,9.7-14.1,12.7c-6,3-13,4.5-21,4.5C315,140.8,307.9,139.2,301.8,136.1z"/>
					<path class="st0" d="M396.4,136.3c-6.1-3.3-10.9-7.9-14.3-13.9c-3.4-5.9-5.1-12.8-5.1-20.5V68.8c0-7.6,1.7-14.4,5.1-20.3
						c3.4-5.9,8.2-10.5,14.3-13.7c6.1-3.3,13.2-4.9,21.3-4.9c8.2,0,15.3,1.6,21.5,4.9c6.1,3.3,10.9,7.8,14.3,13.7s5.1,12.7,5.1,20.3
						v33.1c0,7.7-1.7,14.6-5.1,20.6c-3.4,6-8.2,10.6-14.3,13.9c-6.1,3.3-13.3,4.9-21.5,4.9C409.6,141.3,402.5,139.6,396.4,136.3z
						 M431.4,117.1c3.5-3.6,5.3-8.4,5.3-14.4V68.6c0-6-1.7-10.8-5.2-14.5c-3.5-3.7-8.1-5.5-13.9-5.5c-5.7,0-10.3,1.8-13.7,5.5
						c-3.5,3.7-5.2,8.5-5.2,14.5v34.1c0,6,1.7,10.8,5.2,14.4c3.5,3.6,8,5.4,13.7,5.4C423.3,122.5,427.9,120.7,431.4,117.1z"/>
					<path class="st0" d="M539.7,138l-4.6-15.2c-0.2-0.4-0.5-0.6-0.8-0.6h-38.1c-0.3,0-0.6,0.2-0.8,0.6l-4.5,15.2
						c-0.3,1-1,1.5-2,1.5h-19.7c-0.6,0-1.1-0.2-1.4-0.5c-0.3-0.4-0.4-0.9-0.2-1.6l33.5-104.7c0.3-1,1-1.5,2-1.5h24.3
						c1,0,1.7,0.5,2,1.5L563,137.4c0.1,0.2,0.2,0.5,0.2,0.8c0,0.9-0.6,1.4-1.7,1.4h-19.7C540.7,139.6,540,139.1,539.7,138z
						 M501.6,105.3h27.3c0.6,0,0.8-0.3,0.6-0.9l-13.9-46c-0.1-0.4-0.3-0.6-0.5-0.5c-0.2,0.1-0.4,0.2-0.5,0.5l-13.6,46
						C500.9,105,501.1,105.3,501.6,105.3z"/>
					<path class="st0" d="M577.3,139c-0.4-0.4-0.5-0.8-0.5-1.3V33c0-0.5,0.2-1,0.5-1.3c0.4-0.4,0.8-0.5,1.3-0.5h18.1
						c0.5,0,1,0.2,1.3,0.5c0.4,0.4,0.5,0.8,0.5,1.3v87.1c0,0.5,0.3,0.8,0.8,0.8H650c0.5,0,1,0.2,1.3,0.5c0.4,0.4,0.5,0.8,0.5,1.3v15
						c0,0.5-0.2,1-0.5,1.3c-0.4,0.4-0.8,0.5-1.3,0.5h-71.4C578.1,139.6,577.6,139.4,577.3,139z"/>
					<path class="st0" d="M734.9,138l-4.6-15.2c-0.2-0.4-0.5-0.6-0.8-0.6h-38.1c-0.3,0-0.6,0.2-0.8,0.6l-4.5,15.2
						c-0.3,1-1,1.5-2,1.5h-19.7c-0.6,0-1.1-0.2-1.4-0.5c-0.3-0.4-0.4-0.9-0.2-1.6l33.5-104.7c0.3-1,1-1.5,2-1.5h24.3
						c1,0,1.7,0.5,2,1.5l33.5,104.7c0.1,0.2,0.2,0.5,0.2,0.8c0,0.9-0.6,1.4-1.7,1.4h-19.7C735.9,139.6,735.2,139.1,734.9,138z
						 M696.8,105.3h27.3c0.6,0,0.8-0.3,0.6-0.9l-13.9-46c-0.1-0.4-0.3-0.6-0.5-0.5c-0.2,0.1-0.4,0.2-0.5,0.5l-13.6,46
						C696.1,105,696.3,105.3,696.8,105.3z"/>
				</g>
				<g>
					<path class="st9" d="M204,132.6c-6.2-2.6-11-6.4-14.3-11.3c-3.4-4.9-5-10.6-5-17.1v-3.4c0-0.5,0.2-1,0.5-1.3
						c0.4-0.4,0.8-0.5,1.3-0.5h17.7c0.5,0,1,0.2,1.3,0.5c0.4,0.4,0.5,0.8,0.5,1.3v2.3c0,4.1,1.9,7.6,5.7,10.5
						c3.8,2.8,9,4.3,15.5,4.3c5.5,0,9.6-1.2,12.2-3.5c2.7-2.3,4-5.2,4-8.6c0-2.5-0.8-4.6-2.5-6.3c-1.7-1.7-3.9-3.2-6.7-4.5
						c-2.8-1.3-7.4-3.1-13.6-5.3c-6.9-2.4-12.8-4.8-17.6-7.3c-4.8-2.5-8.8-5.9-12.1-10.1c-3.3-4.3-4.9-9.6-4.9-15.9
						c0-6.2,1.6-11.6,4.8-16.3c3.2-4.6,7.6-8.2,13.3-10.7c5.7-2.5,12.2-3.7,19.7-3.7c7.8,0,14.8,1.4,21,4.2
						c6.1,2.8,10.9,6.7,14.4,11.7c3.5,5,5.2,10.8,5.2,17.4v2.3c0,0.5-0.2,1-0.5,1.3c-0.4,0.4-0.8,0.5-1.3,0.5h-17.8
						c-0.5,0-1-0.2-1.3-0.5c-0.4-0.4-0.5-0.8-0.5-1.3V60c0-4.3-1.8-8-5.3-11.1c-3.6-3-8.4-4.6-14.6-4.6c-4.9,0-8.6,1-11.4,3.1
						c-2.7,2.1-4.1,4.9-4.1,8.5c0,2.6,0.8,4.8,2.4,6.5c1.6,1.8,4,3.3,7.1,4.7c3.1,1.4,8,3.3,14.6,5.7c7.3,2.7,13.1,5.1,17.3,7.1
						c4.2,2.1,8,5.1,11.3,9.2c3.4,4.1,5,9.4,5,15.9c0,9.7-3.6,17.4-10.7,23c-7.1,5.6-16.8,8.4-29,8.4
						C217.4,136.5,210.2,135.2,204,132.6z"/>
					<path class="st9" d="M297.5,131.8c-6.1-3.1-10.8-7.6-14.1-13.2c-3.3-5.7-5-12.2-5-19.7V63.1c0-7.4,1.7-14,5-19.7
						c3.3-5.7,8-10.1,14.1-13.2c6.1-3.1,13.2-4.6,21.2-4.6c8,0,14.9,1.5,21,4.4c6,2.9,10.7,7.1,14.1,12.5c3.4,5.4,5,11.7,5,18.8
						c0,0.9-0.6,1.5-1.9,1.7l-18.1,1.1h-0.3c-1,0-1.5-0.6-1.5-1.7c0-5.5-1.7-9.9-5-13.2c-3.4-3.3-7.8-5-13.2-5c-5.6,0-10,1.7-13.4,5
						c-3.4,3.3-5,7.7-5,13.2v37.3c0,5.4,1.7,9.7,5,13c3.4,3.3,7.8,5,13.4,5c5.5,0,9.9-1.6,13.2-5c3.4-3.3,5-7.6,5-13
						c0-1.1,0.6-1.7,1.9-1.7l18.1,0.8c0.5,0,1,0.2,1.3,0.5c0.4,0.3,0.5,0.7,0.5,1.1c0,7.1-1.7,13.4-5,18.9
						c-3.4,5.5-8.1,9.7-14.1,12.7c-6,3-13,4.5-21,4.5C310.7,136.5,303.6,135,297.5,131.8z"/>
					<path class="st9" d="M392.1,132c-6.1-3.3-10.9-7.9-14.3-13.9c-3.4-5.9-5.1-12.8-5.1-20.5V64.5c0-7.6,1.7-14.4,5.1-20.3
						c3.4-5.9,8.2-10.5,14.3-13.7c6.1-3.3,13.2-4.9,21.3-4.9c8.2,0,15.3,1.6,21.5,4.9c6.1,3.3,10.9,7.8,14.3,13.7
						c3.4,5.9,5.1,12.7,5.1,20.3v33.1c0,7.7-1.7,14.6-5.1,20.6c-3.4,6-8.2,10.6-14.3,13.9c-6.1,3.3-13.3,4.9-21.5,4.9
						C405.3,137,398.2,135.3,392.1,132z M427.2,112.8c3.5-3.6,5.3-8.4,5.3-14.4V64.3c0-6-1.7-10.8-5.2-14.5
						c-3.5-3.7-8.1-5.5-13.9-5.5c-5.7,0-10.3,1.8-13.7,5.5c-3.5,3.7-5.2,8.5-5.2,14.5v34.1c0,6,1.7,10.8,5.2,14.4
						c3.5,3.6,8,5.4,13.7,5.4C419.1,118.3,423.7,116.4,427.2,112.8z"/>
					<path class="st9" d="M535.4,133.7l-4.6-15.2c-0.2-0.4-0.5-0.6-0.8-0.6h-38.1c-0.3,0-0.6,0.2-0.8,0.6l-4.5,15.2
						c-0.3,1-1,1.5-2,1.5H465c-0.6,0-1.1-0.2-1.4-0.5c-0.3-0.4-0.4-0.9-0.2-1.6l33.5-104.7c0.3-1,1-1.5,2-1.5h24.3
						c1,0,1.7,0.5,2,1.5l33.5,104.7c0.1,0.2,0.2,0.5,0.2,0.8c0,0.9-0.6,1.4-1.7,1.4h-19.7C536.4,135.3,535.8,134.8,535.4,133.7z
						 M497.3,101.1h27.3c0.6,0,0.8-0.3,0.6-0.9l-13.9-46c-0.1-0.4-0.3-0.6-0.5-0.5c-0.2,0.1-0.4,0.2-0.5,0.5l-13.6,46
						C496.6,100.7,496.8,101.1,497.3,101.1z"/>
					<path class="st9" d="M573,134.7c-0.4-0.4-0.5-0.8-0.5-1.3V28.7c0-0.5,0.2-1,0.5-1.3c0.4-0.4,0.8-0.5,1.3-0.5h18.1
						c0.5,0,1,0.2,1.3,0.5c0.4,0.4,0.5,0.8,0.5,1.3v87.1c0,0.5,0.3,0.8,0.8,0.8h50.7c0.5,0,1,0.2,1.3,0.5c0.4,0.4,0.5,0.8,0.5,1.3
						v15c0,0.5-0.2,1-0.5,1.3c-0.4,0.4-0.8,0.5-1.3,0.5h-71.4C573.8,135.3,573.4,135.1,573,134.7z"/>
					<path class="st9" d="M730.6,133.7l-4.6-15.2c-0.2-0.4-0.5-0.6-0.8-0.6h-38.1c-0.3,0-0.6,0.2-0.8,0.6l-4.5,15.2
						c-0.3,1-1,1.5-2,1.5h-19.7c-0.6,0-1.1-0.2-1.4-0.5c-0.3-0.4-0.4-0.9-0.2-1.6l33.5-104.7c0.3-1,1-1.5,2-1.5h24.3
						c1,0,1.7,0.5,2,1.5l33.5,104.7c0.1,0.2,0.2,0.5,0.2,0.8c0,0.9-0.6,1.4-1.7,1.4h-19.7C731.6,135.3,730.9,134.8,730.6,133.7z
						 M692.5,101.1h27.3c0.6,0,0.8-0.3,0.6-0.9l-13.9-46c-0.1-0.4-0.3-0.6-0.5-0.5c-0.2,0.1-0.4,0.2-0.5,0.5l-13.6,46
						C691.8,100.7,692,101.1,692.5,101.1z"/>
				</g>
			</g>
			<g>
				<path class="st0" d="M223.8,159.2l3.1-12.3c0.1-0.4,0.5-0.6,1.2-0.6h9.6c0.8,0,1.1,0.2,0.9,0.7l-5.8,12.4
					c-0.2,0.4-0.6,0.5-1.3,0.5h-6.7C224.1,159.9,223.8,159.7,223.8,159.2z"/>
			</g>
			<g>
				<path class="st10" d="M220.4,157l3.1-12.3c0.1-0.4,0.5-0.6,1.2-0.6h9.6c0.8,0,1.1,0.2,0.9,0.7l-5.8,12.4
					c-0.2,0.4-0.6,0.5-1.3,0.5h-6.7C220.7,157.7,220.3,157.4,220.4,157z"/>
			</g>
		</g>
	</g>
</g>
<g id="Layer_2_1_">
</g>
</svg>
