<?xml version="1.0" encoding="utf-8"?>
<!-- Generator: Adobe Illustrator 22.0.1, SVG Export Plug-In . SVG Version: 6.00 Build 0)  -->
<svg version="1.1" id="Layer_1" xmlns="http://www.w3.org/2000/svg" xmlns:xlink="http://www.w3.org/1999/xlink" x="0px" y="0px"
	 viewBox="0 0 848 545" style="enable-background:new 0 0 848 545;" xml:space="preserve">
<style type="text/css">
	.st0{fill:#FF7E00;}
	.st1{fill:#FFAE00;}
	.st2{fill:#68B14C;}
</style>
<path class="st0" d="M596.4620972,452.6903687c-3.4823608,1.3728943-6.0218506,2.050293-7.9819336,2.1627502
	c-2.0558472,0.1086731-4.0407104-0.7772827-5.824707-2.6626892
	c-16.3791504-16.9965515-100.808197-243.177063-99.9272156-253.0556641
	c0.3560181-3.872406,0.8308411-9.1792145,83.6491394-50.3686981
	c43.9732056-21.8707123,92.3387451-44.2098465,115.0147095-53.1247177
	c12.5765381-4.9439545,14.9390869-5.0066605,17.3380737-3.9665527c7.2513428,3.1699905,13.579895,18.6205215,25.354248,50.6749649
	c4.2490845,11.5798645,11.8334351,29.6182251,12.0621338,30.014328c0.7547607-0.7450256,18.9885254-22.6411743,42.449646-29.5690002
	c26.9699707-7.954834,44.3591919-1.2393646,55.8556519,18.9701996c12.394104,21.7805023,13.2092285,55.7923126-7.1141357,72.7798767
	c-4.6245728,3.8582611-9.8546143,6.9427948-15.5820923,9.2023315c-11.2079468,4.4002686-22.2957764,4.8888397-30.3713379,5.2358398
	c-2.7289429,0.12323-5.5551147,0.243042-7.4527588,0.5330505c2.5875244,6.2335968,7.4117432,16.1264648,12.5308228,26.5629883
	c24.9706421,51.0419922,31.2630615,67.8191223,21.9579468,73.3905334
	c-1.9358521,1.1645813-6.5974121,3.5209961-24.5974731,10.5932922
	c-15.270874,6.0039978-34.1790161,13.0514832-46.6741943,17.7115173
	c-6.1039429,2.2796326-10.6692505,3.9802856-12.4987183,4.6948242c-1.8178101,0.7169189-3.8341064,0.5689087-5.5322876-0.4200439
	c-3.8287964-2.2243958-4.5037231-7.1343384-6.0111694-17.9021606c-2.104126-14.8672485-5.5767822-39.7487183-19.3676758-47.8036194
	c-6.7226563-3.9126587-15.807251-3.6697693-27.0012817,0.7384949c-0.59198,0.2343445-1.1919556,0.4825745-1.8244019,0.743866
	c-11.7918091,5.0003052-18.7426147,11.5742188-21.2321167,20.1112061
	c-5.3623657,18.3803711,11.0084229,42.1333923,20.7832031,56.3210144
	c6.1411743,8.9441833,8.4520874,12.2906189,7.2731934,16.1440735c-0.5478516,1.7637329-1.8275757,3.1619873-3.5479736,3.8348389
	c-1.6983032,0.6680908-9.9502563,5.3890686-17.9275513,9.9499817
	C632.9326172,434.1022034,609.1607056,447.703125,596.4620972,452.6903687L596.4620972,452.6903687z"/>
<g>
	
		<rect x="48.8828239" y="126.8804092" transform="matrix(0.3637899 -0.931481 0.931481 0.3637899 -130.2348328 355.3251953)" width="292.234436" height="292.2424011"/>
	
		<rect x="67.4132462" y="142.097702" transform="matrix(0.3638372 -0.9314626 0.9314626 0.3638372 -127.4228592 354.6510925)" class="st1" width="257.0268555" height="257.026825"/>
	<path d="M305.838562,221.3649902c-21.8287048-12.9251862-133.9713593-54.5910492-161.7495575-63.1746216
		c-10.245636,22.9450226-70.4635696,176.4645996-79.9042664,213.9646606
		c-1.4493065,5.7288513,6.8309784,7.342041,9.3269424,2.7540894
		c16.5979996-30.5684204,67.5535202-166.0471497,78.2781448-201.1028748
		c41.6543884,14.5563354,105.0987549,41.1497803,139.8963623,54.7355957
		c-10.5244141,21.9293518-39.5363922,97.7502441-50.3631592,120.7701416
		c-17.7077026-6.3896179-66.8850098-25.5211487-82.6389771-31.6783142
		c4.7015381-8.8029785,18.6022491-46.1907349,21.6273346-56.9153748
		c15.6404114,4.8899841,31.079483,8.3990173,44.7156219,12.6088562c8.2054443,2.539856,16.3465424-0.5923462,9.8057404-3.4277344
		c-13.9768524-6.0617981-48.9512634-20.3420868-60.5328217-24.0278168
		c-6.7303162,10.063858-27.8156281,65.7878876-33.6631927,79.235611
		c28.2311859,11.87854,93.4771729,35.7616577,108.6774902,39.4295959
		C259.7110596,345.2983093,302.0700989,232.3477325,305.838562,221.3649902z"/>
</g>
<g>
	<g>
		<path class="st2" d="M415.5374146,437.6795349c-14.5380554-2.2615356-27.569519-8.1279907-37.6670532-16.9512634
			c-12.7839661-11.1690369-19.5152588-25.6223145-20.0463562-42.965332
			c-1.2531738-40.8919373,32.5271912-85.3782043,50.5413208-103.1868591l3.1470337-3.0912476
			c25.4737244-25.0735626,78.4728699-77.243866,78.3365784-119.5298462
			c-0.0396118-12.3513489-4.5752258-22.7422485-13.8840942-31.7816849
			c-8.1898499-7.9639435-18.625061-13.2735443-29.3535767-14.9424744
			c-16.4203796-2.5543747-31.9349976,3.4179916-42.5465393,16.3840866
			c-18.3754578,22.3944244-14.0488281,40.5366211-7.4961548,68.01297l1.0108948,4.2449036
			c2.9063721,12.3959503-1.0231323,26.2978668-10.269928,36.2735748
			c-8.3239136,9.0023804-19.3674622,13.1864319-30.2838745,11.488266
			c-4.7362671-0.7367859-9.3500977-2.5779877-13.7055054-5.4564362
			c-25.392334-16.8578186-40.4293213-41.7343292-43.5038452-71.954361
			c-3.8430481-37.8735352,11.9831543-79.7160873,41.293457-109.2032623
			c31.2144165-31.4085274,75.4373779-46.1745758,118.317627-39.5040817
			c30.3642273,4.7234879,57.5102844,19.4031639,78.486908,42.4498596
			c53.8798218,59.1506538,24.7317505,143.9867401-20.5003052,203.6556854
			c-18.0481262,23.8024292-39.1907349,42.8170471-56.1868286,58.1011658
			c-16.5672607,14.9067383-30.8728943,27.7735596-34.8782959,38.4429016
			c-1.7467957,4.6200867-3.1881104,11.1994934-0.2453308,16.2433167c2.270752,3.8865662,6.9317627,6.5559387,13.142395,7.5220642
			c11.1830139,1.739624,27.2102356-2.6741943,34.8645325-14.2859802c3.340332-5.0632629,8.2183533-7.5005188,13.3788757-6.6977234
			c4.562561,0.7097473,8.9052124,3.9875793,11.9335632,8.9888c4.0205994,6.6804199,4.9989929,14.8563843,2.5902405,21.8708801
			C489.4638367,428.3844299,448.0987244,442.744812,415.5374146,437.6795349L415.5374146,437.6795349z"/>
		<path d="M533.4041138,62.0679283c52.9060059,58.0829353,19.8163452,142.2336884-20.8474731,195.8738098
			c-35.8313599,47.2446899-82.9545288,74.258606-91.9138184,98.0765076
			c-7.2059326,19.1677856,3.2518005,29.693634,17.6661987,31.9359741
			c14.1317444,2.1983337,32.0552673-3.5670776,40.8856812-16.9566345c2.1856384-3.3068237,4.8006592-4.4248657,7.3577576-4.0270996
			c6.7901611,1.0563049,13.1332092,12.8452759,9.6957397,22.8561707
			c-11.0161133,32.092865-47.5112915,46.848938-79.7738647,41.8301392
			c-12.8292236-1.9957275-24.9801025-7.1148987-34.5968933-15.5179749
			c-43.3834839-37.9285583,1.6235962-108.4277954,30.7770386-137.2238464
			c32.1121826-31.7111664,118.5337524-113.5892639,67.5570984-163.1163635
			c-9.2930908-9.0351563-20.8200378-14.7481613-32.6633911-16.5905228
			c-17.3454895-2.6982803-35.3911743,2.9114227-48.1987915,18.5413589
			c-21.2901611,25.9480591-14.8928528,47.0952454-7.7067261,77.5207977
			c4.855835,20.6195374-13.2590027,43.5183716-33.6800842,40.3416443
			c-3.7161865-0.5780945-7.5240784-2.0290985-11.2645874-4.5143433
			c-61.4603271-40.7895966-48.0508423-124.7168884-1.2609863-171.7817078
			c31.0793457-31.2683334,74.9911499-42.0675125,113.0534973-37.7766266
			C482.9776611,24.2957211,512.7017822,39.3287392,533.4041138,62.0679283z M460.3642883,9.4937563
			c-44.7930603-6.9680562-90.9956665,8.437705-123.5822144,41.2314644
			c-30.5654907,30.7460327-47.0548401,74.4756012-43.0211182,114.1143799
			c3.2484436,32.0943451,19.2342529,58.5166473,46.2003174,76.4137726
			c5.080719,3.3761749,10.5126953,5.5305481,16.1275024,6.4039917c12.9547424,2.0152588,25.9707031-2.8587952,35.70047-13.3696442
			c10.6001892-11.4430084,15.0994873-27.4656219,11.7241821-41.8046112l-1.021637-4.2712402
			c-6.5624695-27.5173645-10.1636353-42.6795959,6.2891541-62.7297058
			c9.2045898-11.2587433,22.6685486-16.4414444,36.8934326-14.2286072
			c9.4902344,1.4763107,18.7465515,6.2009659,26.0447388,13.2878189
			c8.0658875,7.8410263,12.0027771,16.8146286,12.0375366,27.4298172
			c0.1339111,39.7228088-51.6465149,90.677948-76.5164185,115.169342l-3.1488342,3.1010437
			c-18.693634,18.4563293-53.6647644,64.717926-52.3675232,107.7059326
			c0.5787048,19.1004639,8.0262451,35.0386963,22.124939,47.3679504
			c10.9903259,9.5888672,25.0687561,15.9471741,40.751709,18.3868103
			c34.991272,5.4432983,79.5454407-10.2041016,93.1769409-49.9206848
			c2.9905396-8.6922607,1.8136597-18.7858582-3.1419067-26.9951172c-3.960144-6.5509338-9.8575745-10.8733521-16.2093201-11.8614197
			c-7.5133972-1.1687927-14.771637,2.3276367-19.4005737,9.3584595
			c-6.2631226,9.4907227-19.5421143,13.0720825-28.8428345,11.6252441
			c-4.2975769-0.6685486-7.5081177-2.3325806-8.8152466-4.5674133c-1.8409729-3.1386719-0.3539429-8.2566528,0.6886292-11.0339661
			c3.4822998-9.2735901,17.2833557-21.6793518,33.2545776-36.0537109
			c17.182373-15.4558411,38.5681763-34.6908875,56.9580078-58.9451294
			c46.7105713-61.6232452,76.5458374-149.533905,20.1553955-211.4522247
			C520.5007935,29.7791996,492.1245422,14.4426365,460.3642883,9.4937563L460.3642883,9.4937563z"/>
	</g>
	<g>
		<path class="st2" d="M435.6194458,531.531189c-23.9335632-3.7231445-40.3683472-26.2228699-36.6452332-50.1564026
			c3.7221375-23.927124,26.2138367-40.3633423,50.1473999-36.6402283
			c23.9351501,3.7233887,40.3872375,26.2177429,36.6651001,50.1448669
			C482.0635986,518.8129272,459.5545959,535.2545166,435.6194458,531.531189L435.6194458,531.531189z"/>
		<path d="M479.7639771,493.9425049c-3.2119446,20.647522-22.5504761,34.7793579-43.2076416,31.565918
			c-20.6234436-3.2081909-34.7713318-22.5491943-31.5593872-43.1967468
			c3.2097473-20.6332703,24.6460266-34.8317261,43.1877441-31.5543823
			C469.3997498,454.5084229,482.9736938,473.3092651,479.7639771,493.9425049z M450.0585022,438.7118225
			c-27.2436218-4.2380371-52.8689575,14.4824219-57.1070251,41.7260437
			c-4.2402954,27.2580872,14.4874268,52.8779907,41.7310486,57.1160278
			c27.2597046,4.2405396,52.8866272-14.4794922,57.1269226-41.7375793
			C496.0474854,468.5726929,477.3182068,442.9523621,450.0585022,438.7118225L450.0585022,438.7118225z"/>
	</g>
</g>
</svg>
